G04*
G04 #@! TF.GenerationSoftware,Altium Limited,Altium Designer,20.2.6 (244)*
G04*
G04 Layer_Color=65535*
%FSLAX25Y25*%
%MOIN*%
G70*
G04*
G04 #@! TF.SameCoordinates,9385ED74-4294-42B6-9646-82B243174D78*
G04*
G04*
G04 #@! TF.FilePolarity,Positive*
G04*
G01*
G75*
%ADD10C,0.01000*%
%ADD11C,0.01200*%
%ADD12C,0.00300*%
%ADD13C,0.01181*%
%ADD14C,0.01575*%
%ADD15C,0.00600*%
%ADD16C,0.00800*%
%ADD17C,0.00787*%
%ADD18C,0.00591*%
%ADD19C,0.01968*%
G36*
X23000Y166500D02*
Y172415D01*
X22400D01*
Y166500D01*
X23000D01*
D01*
D02*
G37*
G36*
X19500Y181500D02*
Y175585D01*
X20100D01*
Y181500D01*
X19500D01*
D01*
D02*
G37*
G36*
X13000Y191000D02*
Y219000D01*
X10000Y215000D01*
X8000Y209000D01*
X7000Y203000D01*
X8000Y199000D01*
X13000Y191000D01*
D01*
D02*
G37*
G36*
X61628Y356933D02*
X62715Y355635D01*
X63611Y354198D01*
X64299Y352651D01*
X64765Y351023D01*
X65000Y349346D01*
Y347654D01*
X64765Y345977D01*
X64299Y344349D01*
X63611Y342802D01*
X62715Y341365D01*
X61628Y340067D01*
X61000Y339500D01*
Y339500D01*
Y357500D01*
X61628Y356933D01*
D02*
G37*
G36*
X192000Y319500D02*
X187000Y327500D01*
X186000Y331500D01*
X187000Y337500D01*
X189000Y343500D01*
X192000Y347500D01*
Y319500D01*
D02*
G37*
G36*
X190654Y304520D02*
X190634Y304500D01*
X187130Y302689D01*
Y306311D01*
X190654Y304520D01*
D02*
G37*
G36*
X98331Y360335D02*
X100211D01*
Y362135D01*
X98331D01*
Y360335D01*
D01*
D02*
G37*
G36*
X109669D02*
X107789D01*
Y362135D01*
X109669D01*
Y360335D01*
D01*
D02*
G37*
G36*
X144331Y439165D02*
X146211D01*
Y437365D01*
X144331D01*
Y439165D01*
D01*
D02*
G37*
G36*
X189831Y361665D02*
X191711D01*
Y359865D01*
X189831D01*
Y361665D01*
D01*
D02*
G37*
G36*
X201169D02*
X199289D01*
Y359865D01*
X201169D01*
Y361665D01*
D01*
D02*
G37*
G36*
X155669Y439165D02*
X153789D01*
Y437365D01*
X155669D01*
Y439165D01*
D01*
D02*
G37*
D10*
X46685Y205000D02*
G03*
X46685Y205000I-19685J0D01*
G01*
X121085Y384941D02*
G03*
X121085Y384941I-2121J0D01*
G01*
X63250Y398250D02*
G03*
X67750Y398250I2250J0D01*
G01*
X63250Y397875D02*
G03*
X58750Y397875I-2250J0D01*
G01*
X43250Y398250D02*
G03*
X47750Y398250I2250J0D01*
G01*
X43250Y397875D02*
G03*
X38750Y397875I-2250J0D01*
G01*
X57500Y379500D02*
G03*
X49500Y379500I-4000J0D01*
G01*
X280462Y357000D02*
G03*
X280462Y357000I-23622J0D01*
G01*
X197295Y260253D02*
G03*
X196076Y261473I-1220J0D01*
G01*
X192926D02*
G03*
X191706Y260253I-0J-1220D01*
G01*
X196053Y250466D02*
G03*
X197273Y251686I0J1220D01*
G01*
X191683D02*
G03*
X192903Y250466I1220J0D01*
G01*
X206253Y267205D02*
G03*
X207472Y268424I0J1220D01*
G01*
Y271574D02*
G03*
X206253Y272794I-1220J0D01*
G01*
X196467Y268447D02*
G03*
X197686Y267228I1220J-0D01*
G01*
Y272817D02*
G03*
X196467Y271597I0J-1220D01*
G01*
X225685Y333500D02*
G03*
X225685Y333500I-19685J0D01*
G01*
X64900Y348500D02*
G03*
X64900Y348500I-12400J0D01*
G01*
X71658Y337639D02*
G03*
X71677Y343359I-157J2860D01*
G01*
X232486Y263142D02*
G03*
X232486Y263142I-671J0D01*
G01*
X41000Y205000D02*
X45000D01*
X43000Y202000D02*
Y208000D01*
X101000Y504000D02*
X111000D01*
X101000Y494000D02*
Y504000D01*
Y494000D02*
X111000D01*
Y504000D01*
X35000Y416000D02*
Y426000D01*
X25000Y416000D02*
X35000D01*
X25000D02*
Y426000D01*
X35000D01*
X107992Y432815D02*
Y472185D01*
X21378Y432815D02*
Y472185D01*
X107992D01*
X21378Y432815D02*
X107992D01*
X45000D02*
Y472185D01*
X84370Y432815D02*
Y472185D01*
X114464Y316949D02*
X177456D01*
Y379941D01*
X114464D02*
X177456D01*
X114464Y316949D02*
Y379941D01*
X135064Y304691D02*
X158315D01*
Y391090D01*
X135064D02*
X158315D01*
X135064Y304691D02*
Y391090D01*
X40500Y381500D02*
X45500D01*
X43000Y379000D02*
Y384000D01*
X61000Y381500D02*
X66000D01*
X253094Y310063D02*
X264906D01*
X253094Y307937D02*
X264906D01*
X253094D02*
Y310063D01*
X264906Y307937D02*
Y310063D01*
X269323Y346882D02*
X274283D01*
X271843Y344520D02*
Y349480D01*
X197272Y251687D02*
Y254836D01*
X192903Y250467D02*
X196053D01*
X191683Y251687D02*
Y254836D01*
X197295Y257103D02*
Y260253D01*
X191706Y257103D02*
Y260253D01*
X192926Y261473D02*
X196076D01*
X197687Y267228D02*
X200836D01*
X196467Y268447D02*
Y271597D01*
X197687Y272817D02*
X200836D01*
X203103Y267205D02*
X206253D01*
X203103Y272794D02*
X206253D01*
X207472Y268424D02*
Y271574D01*
X222000Y330500D02*
Y336500D01*
X220000Y333500D02*
X224000D01*
X47500Y352500D02*
Y356500D01*
X45500Y354500D02*
X49500D01*
X68363Y273079D02*
X68555D01*
X58363D02*
X60637D01*
X50444D02*
X50637D01*
X68363Y299063D02*
X68555D01*
X58363D02*
X60637D01*
X50444D02*
X50637D01*
X68555Y273079D02*
Y299063D01*
X50444Y273079D02*
Y299063D01*
X71658Y334594D02*
Y337639D01*
Y343359D02*
Y346406D01*
Y348000D01*
X72017D01*
X91343Y333000D02*
Y334594D01*
X90983Y333000D02*
X91343D01*
X71658D02*
Y334594D01*
Y333000D02*
X72017D01*
X91343Y346406D02*
Y348000D01*
X90983D02*
X91343D01*
Y334594D02*
Y346406D01*
X77126Y367674D02*
X81026D01*
X88974D02*
X92874D01*
X77126Y389327D02*
X81026D01*
X88974D02*
X92874D01*
Y367674D02*
Y389327D01*
X77126Y367674D02*
Y389327D01*
X81000Y380500D02*
X89000D01*
X81000Y376500D02*
X89000D01*
X84993Y373500D02*
Y376500D01*
Y380500D02*
Y383500D01*
X185543Y307650D02*
X192457D01*
X185457Y301350D02*
X192543D01*
X77500Y496000D02*
Y506000D01*
X67500Y496000D02*
X77500D01*
X67500D02*
Y506000D01*
X77500D01*
X150196Y539638D02*
X165943D01*
Y552236D01*
X150196Y539638D02*
Y552236D01*
Y543181D02*
X165943D01*
X189421Y500969D02*
X193629D01*
X171037D02*
X176577D01*
X154501D02*
X161890D01*
X122763D02*
X128819D01*
X137966D02*
X145354D01*
X122763Y552543D02*
X193629D01*
Y500969D02*
Y552543D01*
X122763Y500969D02*
Y552543D01*
X89500Y24596D02*
Y23596D01*
X91499Y21597D01*
X93499Y23596D01*
Y24596D01*
X91499Y21597D02*
Y18598D01*
X95498Y24596D02*
Y18598D01*
X97497Y20597D01*
X99497Y18598D01*
Y24596D01*
X101496Y21597D02*
X105495D01*
X107494Y23596D02*
X108494Y24596D01*
X110493D01*
X111493Y23596D01*
Y19597D01*
X110493Y18598D01*
X108494D01*
X107494Y19597D01*
Y23596D01*
X113492D02*
X114492Y24596D01*
X116491D01*
X117491Y23596D01*
Y19597D01*
X116491Y18598D01*
X114492D01*
X113492Y19597D01*
Y23596D01*
X119490Y18598D02*
X121490D01*
X120490D01*
Y24596D01*
X119490Y23596D01*
X130487Y24596D02*
Y20597D01*
X132486Y18598D01*
X134485Y20597D01*
Y24596D01*
X136485Y18598D02*
X138484D01*
X137485D01*
Y24596D01*
X136485Y23596D01*
X141483Y18598D02*
Y19597D01*
X142483D01*
Y18598D01*
X141483D01*
X146482Y23596D02*
X147481Y24596D01*
X149481D01*
X150480Y23596D01*
Y19597D01*
X149481Y18598D01*
X147481D01*
X146482Y19597D01*
Y23596D01*
X162476Y18598D02*
X158478D01*
X162476Y22596D01*
Y23596D01*
X161477Y24596D01*
X159477D01*
X158478Y23596D01*
X164476D02*
X165475Y24596D01*
X167475D01*
X168474Y23596D01*
Y19597D01*
X167475Y18598D01*
X165475D01*
X164476Y19597D01*
Y23596D01*
X174472Y18598D02*
X170474D01*
X174472Y22596D01*
Y23596D01*
X173473Y24596D01*
X171474D01*
X170474Y23596D01*
X179471Y18598D02*
Y24596D01*
X176472Y21597D01*
X180471D01*
X182470Y23596D02*
X183470Y24596D01*
X185469D01*
X186469Y23596D01*
Y19597D01*
X185469Y18598D01*
X183470D01*
X182470Y19597D01*
Y23596D01*
X188468Y19597D02*
X189468Y18598D01*
X191467D01*
X192467Y19597D01*
Y23596D01*
X191467Y24596D01*
X189468D01*
X188468Y23596D01*
Y22596D01*
X189468Y21597D01*
X192467D01*
X194466Y18598D02*
X196465D01*
X195466D01*
Y24596D01*
X194466Y23596D01*
X202463Y18598D02*
Y24596D01*
X199464Y21597D01*
X203463D01*
X95498Y9000D02*
Y14998D01*
X98497D01*
X99497Y13998D01*
Y11999D01*
X98497Y10999D01*
X95498D01*
X104495Y14998D02*
X102496D01*
X101496Y13998D01*
Y10000D01*
X102496Y9000D01*
X104495D01*
X105495Y10000D01*
Y13998D01*
X104495Y14998D01*
X107494D02*
Y9000D01*
X109494Y10999D01*
X111493Y9000D01*
Y14998D01*
X117491D02*
X113492D01*
Y9000D01*
X117491D01*
X113492Y11999D02*
X115492D01*
X119490Y9000D02*
Y14998D01*
X122489D01*
X123489Y13998D01*
Y11999D01*
X122489Y10999D01*
X119490D01*
X121490D02*
X123489Y9000D01*
X131486Y14998D02*
Y9000D01*
X134485D01*
X135485Y10000D01*
Y10999D01*
X134485Y11999D01*
X131486D01*
X134485D01*
X135485Y12999D01*
Y13998D01*
X134485Y14998D01*
X131486D01*
X137485D02*
Y13998D01*
X139484Y11999D01*
X141483Y13998D01*
Y14998D01*
X139484Y11999D02*
Y9000D01*
X153479Y13998D02*
X152480Y14998D01*
X150480D01*
X149481Y13998D01*
Y10000D01*
X150480Y9000D01*
X152480D01*
X153479Y10000D01*
X155479Y9000D02*
Y12999D01*
X157478Y14998D01*
X159477Y12999D01*
Y9000D01*
Y11999D01*
X155479D01*
X161477Y9000D02*
Y14998D01*
X163476Y12999D01*
X165475Y14998D01*
Y9000D01*
X171474Y14998D02*
X167475D01*
Y9000D01*
X171474D01*
X167475Y11999D02*
X169474D01*
X173473Y9000D02*
Y14998D01*
X176472D01*
X177472Y13998D01*
Y11999D01*
X176472Y10999D01*
X173473D01*
X175472D02*
X177472Y9000D01*
X182470Y14998D02*
X180471D01*
X179471Y13998D01*
Y10000D01*
X180471Y9000D01*
X182470D01*
X183470Y10000D01*
Y13998D01*
X182470Y14998D01*
X185469Y9000D02*
Y14998D01*
X189468Y9000D01*
Y14998D01*
D11*
X25600Y232000D02*
G03*
X25600Y241000I-4500J4500D01*
G01*
X10400D02*
G03*
X10400Y232000I4500J-4500D01*
G01*
X55400Y183500D02*
G03*
X55400Y174500I4500J-4500D01*
G01*
X70600D02*
G03*
X70600Y183500I-4500J4500D01*
G01*
X234600Y103000D02*
G03*
X234600Y112000I-4500J4500D01*
G01*
X219400D02*
G03*
X219400Y103000I4500J-4500D01*
G01*
X182100D02*
G03*
X182100Y112000I-4500J4500D01*
G01*
X166900D02*
G03*
X166900Y103000I4500J-4500D01*
G01*
X13400Y113500D02*
G03*
X13400Y104500I4500J-4500D01*
G01*
X28600D02*
G03*
X28600Y113500I-4500J4500D01*
G01*
X31400Y241000D02*
G03*
X31400Y232000I4500J-4500D01*
G01*
X46600D02*
G03*
X46600Y241000I-4500J4500D01*
G01*
X51400Y320500D02*
G03*
X51400Y311500I4500J-4500D01*
G01*
X66600D02*
G03*
X66600Y320500I-4500J4500D01*
G01*
X90100Y311500D02*
G03*
X90100Y320500I-4500J4500D01*
G01*
X74900D02*
G03*
X74900Y311500I4500J-4500D01*
G01*
X219400Y477000D02*
G03*
X219400Y468000I4500J-4500D01*
G01*
X234600D02*
G03*
X234600Y477000I-4500J4500D01*
G01*
X106400Y112000D02*
G03*
X106400Y103000I4500J-4500D01*
G01*
X121600D02*
G03*
X121600Y112000I-4500J4500D01*
G01*
X72400D02*
G03*
X72400Y103000I4500J-4500D01*
G01*
X87600D02*
G03*
X87600Y112000I-4500J4500D01*
G01*
X20000Y232000D02*
X25600D01*
X10400D02*
X16000D01*
X20000Y241000D02*
X25600D01*
X10400D02*
X16000D01*
X87700Y206000D02*
Y210500D01*
X76200Y206000D02*
Y210500D01*
X85700D02*
X87700D01*
X81700Y201500D02*
X82200D01*
X76200Y210500D02*
X78200D01*
X55400Y183500D02*
X61000D01*
X65000D02*
X70600D01*
X55400Y174500D02*
X61000D01*
X65000D02*
X70600D01*
X229000Y103000D02*
X234600D01*
X219400D02*
X225000D01*
X229000Y112000D02*
X234600D01*
X219400D02*
X225000D01*
X176500Y103000D02*
X182100D01*
X166900D02*
X172500D01*
X176500Y112000D02*
X182100D01*
X166900D02*
X172500D01*
X58700Y210000D02*
X60700D01*
X64200Y201000D02*
X64700D01*
X68200Y210000D02*
X70200D01*
X58700Y205500D02*
Y210000D01*
X70200Y205500D02*
Y210000D01*
X13400Y113500D02*
X19000D01*
X23000D02*
X28600D01*
X13400Y104500D02*
X19000D01*
X23000D02*
X28600D01*
X31000Y137000D02*
Y139000D01*
X40000Y142500D02*
Y143000D01*
X31000Y146500D02*
Y148500D01*
Y137000D02*
X35500D01*
X31000Y148500D02*
X35500D01*
X50500Y133200D02*
Y135200D01*
X59500Y138700D02*
Y139200D01*
X50500Y142700D02*
Y144700D01*
Y133200D02*
X55000D01*
X50500Y144700D02*
X55000D01*
X31400Y241000D02*
X37000D01*
X41000D02*
X46600D01*
X31400Y232000D02*
X37000D01*
X41000D02*
X46600D01*
X51400Y320500D02*
X57000D01*
X61000D02*
X66600D01*
X51400Y311500D02*
X57000D01*
X61000D02*
X66600D01*
X84500D02*
X90100D01*
X74900D02*
X80500D01*
X84500Y320500D02*
X90100D01*
X74900D02*
X80500D01*
X219400Y477000D02*
X225000D01*
X229000D02*
X234600D01*
X219400Y468000D02*
X225000D01*
X229000D02*
X234600D01*
X106400Y112000D02*
X112000D01*
X116000D02*
X121600D01*
X106400Y103000D02*
X112000D01*
X116000D02*
X121600D01*
X72400Y112000D02*
X78000D01*
X82000D02*
X87600D01*
X72400Y103000D02*
X78000D01*
X82000D02*
X87600D01*
D12*
X14151Y165942D02*
G03*
X14151Y165942I-150J0D01*
G01*
Y173057D02*
G03*
X14151Y173057I-150J0D01*
G01*
X28650Y182058D02*
G03*
X28650Y182058I-150J0D01*
G01*
Y174943D02*
G03*
X28650Y174943I-150J0D01*
G01*
D13*
X68874Y407862D02*
G03*
X68874Y407862I-591J0D01*
G01*
X50091Y270071D02*
G03*
X50091Y270071I-591J0D01*
G01*
X53591Y276071D02*
G03*
X53591Y276071I-591J0D01*
G01*
X72091Y330000D02*
G03*
X72091Y330000I-591J0D01*
G01*
D14*
X234846Y267984D02*
G03*
X234841Y269559I-5J787D01*
G01*
D02*
G03*
X234836Y267984I0J-787D01*
G01*
D15*
X177178Y263899D02*
X180953D01*
Y269101D01*
X177178D02*
X180953D01*
X170047Y263899D02*
X173822D01*
X170047D02*
Y269101D01*
X173822D01*
X177678Y187399D02*
X181453D01*
Y192601D01*
X177678D02*
X181453D01*
X170547Y187399D02*
X174322D01*
X170547D02*
Y192601D01*
X174322D01*
X6269Y173057D02*
X12125D01*
X6269Y165942D02*
Y173057D01*
Y165942D02*
X12125D01*
X15875Y173057D02*
X21131D01*
X21731Y172457D01*
Y166542D02*
Y172457D01*
X21131Y165942D02*
X21731Y166542D01*
X15875Y165942D02*
X21131D01*
X30375Y174943D02*
X36230D01*
Y182058D01*
X30375D02*
X36230D01*
X21369Y174943D02*
X26625D01*
X20769Y175543D02*
X21369Y174943D01*
X20769Y175543D02*
Y181458D01*
X21369Y182058D01*
X26625D01*
X144684Y445503D02*
X155421D01*
X144631Y438866D02*
Y460135D01*
X155369Y438866D02*
Y460135D01*
X144631D02*
X146011D01*
X153989D02*
X155369D01*
X36468Y378900D02*
Y402100D01*
X70532D01*
Y378900D02*
Y402100D01*
X36468Y378900D02*
X70532D01*
X173144Y146399D02*
X176919D01*
Y151601D01*
X173144D02*
X176919D01*
X166013Y146399D02*
X169788D01*
X166013D02*
Y151601D01*
X169788D01*
X157712Y146399D02*
X161487D01*
Y151601D01*
X157712D02*
X161487D01*
X150581Y146399D02*
X154356D01*
X150581D02*
Y151601D01*
X154356D01*
X127678Y146399D02*
X131453D01*
Y151601D01*
X127678D02*
X131453D01*
X120547Y146399D02*
X124322D01*
X120547D02*
Y151601D01*
X124322D01*
X175178Y224399D02*
X178953D01*
Y229601D01*
X175178D02*
X178953D01*
X168047Y224399D02*
X171822D01*
X168047D02*
Y229601D01*
X171822D01*
X157712Y224399D02*
X161487D01*
Y229601D01*
X157712D02*
X161487D01*
X150581Y224399D02*
X154356D01*
X150581D02*
Y229601D01*
X154356D01*
X127678Y224399D02*
X131453D01*
Y229601D01*
X127678D02*
X131453D01*
X120547Y224399D02*
X124322D01*
X120547D02*
Y229601D01*
X124322D01*
X190184Y368003D02*
X200921D01*
X190131Y361366D02*
Y382634D01*
X200869Y361366D02*
Y382634D01*
X190131D02*
X191511D01*
X199489D02*
X200869D01*
X17326Y259576D02*
Y283070D01*
X43674Y259576D02*
Y283070D01*
X17326Y259576D02*
X43674D01*
X98579Y353997D02*
X109316D01*
X109369Y339366D02*
Y360634D01*
X98631Y339366D02*
Y360634D01*
X107989Y339366D02*
X109369D01*
X98631D02*
X100011D01*
D16*
X15000Y145000D02*
Y152000D01*
Y145000D02*
X23000D01*
Y152000D01*
Y156000D02*
Y163000D01*
X15000D02*
X23000D01*
X15000Y156000D02*
Y163000D01*
X85000Y187000D02*
X92000D01*
Y195000D01*
X85000D02*
X92000D01*
X74000D02*
X81000D01*
X74000Y187000D02*
Y195000D01*
Y187000D02*
X81000D01*
X65000D02*
X72000D01*
Y195000D01*
X65000D02*
X72000D01*
X54000D02*
X61000D01*
X54000Y187000D02*
Y195000D01*
Y187000D02*
X61000D01*
X229000Y114000D02*
X236000D01*
Y122000D01*
X229000D02*
X236000D01*
X218000D02*
X225000D01*
X218000Y114000D02*
Y122000D01*
Y114000D02*
X225000D01*
X82000D02*
X89000D01*
Y122000D01*
X82000D02*
X89000D01*
X71000D02*
X78000D01*
X71000Y114000D02*
Y122000D01*
Y114000D02*
X78000D01*
X116000D02*
X123000D01*
Y122000D01*
X116000D02*
X123000D01*
X105000D02*
X112000D01*
X105000Y114000D02*
Y122000D01*
Y114000D02*
X112000D01*
X176500D02*
X183500D01*
Y122000D01*
X176500D02*
X183500D01*
X165500D02*
X172500D01*
X165500Y114000D02*
Y122000D01*
Y114000D02*
X172500D01*
X191000Y443500D02*
Y450500D01*
Y443500D02*
X199000D01*
Y450500D01*
Y454500D02*
Y461500D01*
X191000D02*
X199000D01*
X191000Y454500D02*
Y461500D01*
X199500Y409000D02*
X206500D01*
X199500Y401000D02*
Y409000D01*
Y401000D02*
X206500D01*
X210500D02*
X217500D01*
Y409000D01*
X210500D02*
X217500D01*
X167000D02*
X174000D01*
X167000Y401000D02*
Y409000D01*
Y401000D02*
X174000D01*
X178000D02*
X185000D01*
Y409000D01*
X178000D02*
X185000D01*
X134500Y408500D02*
X141500D01*
X134500Y400500D02*
Y408500D01*
Y400500D02*
X141500D01*
X145500D02*
X152500D01*
Y408500D01*
X145500D02*
X152500D01*
X268000Y277000D02*
Y284000D01*
X260000Y277000D02*
X268000D01*
X260000D02*
Y284000D01*
Y288000D02*
Y295000D01*
X268000D01*
Y288000D02*
Y295000D01*
X257500Y277000D02*
Y284000D01*
X249500Y277000D02*
X257500D01*
X249500D02*
Y284000D01*
Y288000D02*
Y295000D01*
X257500D01*
Y288000D02*
Y295000D01*
X28000Y161000D02*
X35000D01*
X28000D02*
Y169000D01*
X35000D01*
X39000D02*
X46000D01*
Y161000D02*
Y169000D01*
X39000Y161000D02*
X46000D01*
X60500Y233000D02*
Y240000D01*
X68500D01*
Y233000D02*
Y240000D01*
Y222000D02*
Y229000D01*
X60500Y222000D02*
X68500D01*
X60500D02*
Y229000D01*
X78000Y233000D02*
Y240000D01*
X86000D01*
Y233000D02*
Y240000D01*
Y222000D02*
Y229000D01*
X78000Y222000D02*
X86000D01*
X78000D02*
Y229000D01*
X36000Y105000D02*
X43000D01*
X36000D02*
Y113000D01*
X43000D01*
X47000D02*
X54000D01*
Y105000D02*
Y113000D01*
X47000Y105000D02*
X54000D01*
X202000Y300500D02*
X209000D01*
X202000D02*
Y308500D01*
X209000D01*
X213000D02*
X220000D01*
Y300500D02*
Y308500D01*
X213000Y300500D02*
X220000D01*
X19500Y337500D02*
Y344500D01*
Y337500D02*
X27500D01*
Y344500D01*
Y348500D02*
Y355500D01*
X19500D02*
X27500D01*
X19500Y348500D02*
Y355500D01*
X36000Y302500D02*
Y309500D01*
Y302500D02*
X44000D01*
Y309500D01*
Y313500D02*
Y320500D01*
X36000D02*
X44000D01*
X36000Y313500D02*
Y320500D01*
X19500Y359000D02*
Y366000D01*
Y359000D02*
X27500D01*
Y366000D01*
Y370000D02*
Y377000D01*
X19500D02*
X27500D01*
X19500Y370000D02*
Y377000D01*
X108000Y369500D02*
Y376500D01*
X100000Y369500D02*
X108000D01*
X100000D02*
Y376500D01*
Y380500D02*
Y387500D01*
X108000D01*
Y380500D02*
Y387500D01*
X118500Y435500D02*
X125500D01*
X118500D02*
Y443500D01*
X125500D01*
X129500D02*
X136500D01*
Y435500D02*
Y443500D01*
X129500Y435500D02*
X136500D01*
X170500Y443500D02*
Y450500D01*
X162500Y443500D02*
X170500D01*
X162500D02*
Y450500D01*
Y454500D02*
Y461500D01*
X170500D01*
Y454500D02*
Y461500D01*
X172000Y454500D02*
Y461500D01*
X180000D01*
Y454500D02*
Y461500D01*
Y443500D02*
Y450500D01*
X172000Y443500D02*
X180000D01*
X172000D02*
Y450500D01*
X189500Y443500D02*
Y450500D01*
X181500Y443500D02*
X189500D01*
X181500D02*
Y450500D01*
Y454500D02*
Y461500D01*
X189500D01*
Y454500D02*
Y461500D01*
X218000Y456000D02*
X225000D01*
X218000D02*
Y464000D01*
X225000D01*
X229000D02*
X236000D01*
Y456000D02*
Y464000D01*
X229000Y456000D02*
X236000D01*
D17*
X102000Y269500D02*
X112000D01*
Y229500D02*
Y269500D01*
X102000Y229500D02*
Y269500D01*
Y229500D02*
X112000D01*
X208500Y238850D02*
X232900D01*
X208500D02*
Y265050D01*
X234600D01*
Y238850D02*
Y265050D01*
X231600Y238850D02*
X234600D01*
D18*
X162286Y265622D02*
Y268377D01*
X163663D01*
X164122Y267918D01*
Y267000D01*
X163663Y266541D01*
X162286D01*
X163204D02*
X164122Y265622D01*
X165041Y267918D02*
X165500Y268377D01*
X166418D01*
X166877Y267918D01*
Y267459D01*
X166418Y267000D01*
X165959D01*
X166418D01*
X166877Y266541D01*
Y266082D01*
X166418Y265622D01*
X165500D01*
X165041Y266082D01*
X167796Y265622D02*
X168714D01*
X168255D01*
Y268377D01*
X167796Y267918D01*
X183827Y189122D02*
Y191877D01*
X185204D01*
X185663Y191418D01*
Y190500D01*
X185204Y190041D01*
X183827D01*
X184745D02*
X185663Y189122D01*
X186582Y191418D02*
X187041Y191877D01*
X187959D01*
X188418Y191418D01*
Y190959D01*
X187959Y190500D01*
X187500D01*
X187959D01*
X188418Y190041D01*
Y189582D01*
X187959Y189122D01*
X187041D01*
X186582Y189582D01*
X189337Y191418D02*
X189796Y191877D01*
X190714D01*
X191173Y191418D01*
Y189582D01*
X190714Y189122D01*
X189796D01*
X189337Y189582D01*
Y191418D01*
X7541Y224418D02*
X7082Y224878D01*
X6163D01*
X5704Y224418D01*
Y222582D01*
X6163Y222123D01*
X7082D01*
X7541Y222582D01*
X8459D02*
X8918Y222123D01*
X9837D01*
X10296Y222582D01*
Y224418D01*
X9837Y224878D01*
X8918D01*
X8459Y224418D01*
Y223959D01*
X8918Y223500D01*
X10296D01*
X4541Y236418D02*
X4082Y236877D01*
X3163D01*
X2704Y236418D01*
Y234582D01*
X3163Y234122D01*
X4082D01*
X4541Y234582D01*
X5459Y236877D02*
X7296D01*
Y236418D01*
X5459Y234582D01*
Y234122D01*
X6704Y180377D02*
Y177622D01*
X8082D01*
X8541Y178082D01*
Y179918D01*
X8082Y180377D01*
X6704D01*
X9459Y179918D02*
X9918Y180377D01*
X10837D01*
X11296Y179918D01*
Y179459D01*
X10837Y179000D01*
X11296Y178541D01*
Y178082D01*
X10837Y177622D01*
X9918D01*
X9459Y178082D01*
Y178541D01*
X9918Y179000D01*
X9459Y179459D01*
Y179918D01*
X9918Y179000D02*
X10837D01*
X13704Y180377D02*
Y177622D01*
X15082D01*
X15541Y178082D01*
Y179918D01*
X15082Y180377D01*
X13704D01*
X16459Y178082D02*
X16918Y177622D01*
X17837D01*
X18296Y178082D01*
Y179918D01*
X17837Y180377D01*
X16918D01*
X16459Y179918D01*
Y179459D01*
X16918Y179000D01*
X18296D01*
X5556Y157623D02*
Y160378D01*
X6934D01*
X7393Y159918D01*
Y159000D01*
X6934Y158541D01*
X5556D01*
X6475D02*
X7393Y157623D01*
X8311D02*
X9230D01*
X8770D01*
Y160378D01*
X8311Y159918D01*
X10607D02*
X11066Y160378D01*
X11985D01*
X12444Y159918D01*
Y159459D01*
X11985Y159000D01*
X12444Y158541D01*
Y158082D01*
X11985Y157623D01*
X11066D01*
X10607Y158082D01*
Y158541D01*
X11066Y159000D01*
X10607Y159459D01*
Y159918D01*
X11066Y159000D02*
X11985D01*
X77541Y215582D02*
Y217418D01*
X77082Y217878D01*
X76163D01*
X75704Y217418D01*
Y215582D01*
X76163Y215123D01*
X77082D01*
X76622Y216041D02*
X77541Y215123D01*
X77082D02*
X77541Y215582D01*
X80296Y217878D02*
X78459D01*
Y216500D01*
X79378Y216959D01*
X79837D01*
X80296Y216500D01*
Y215582D01*
X79837Y215123D01*
X78918D01*
X78459Y215582D01*
X94556Y190122D02*
Y192877D01*
X95934D01*
X96393Y192418D01*
Y191500D01*
X95934Y191041D01*
X94556D01*
X95475D02*
X96393Y190122D01*
X97311D02*
X98230D01*
X97770D01*
Y192877D01*
X97311Y192418D01*
X99607Y190582D02*
X100066Y190122D01*
X100985D01*
X101444Y190582D01*
Y192418D01*
X100985Y192877D01*
X100066D01*
X99607Y192418D01*
Y191959D01*
X100066Y191500D01*
X101444D01*
X66352Y170918D02*
X65893Y171378D01*
X64975D01*
X64515Y170918D01*
Y169082D01*
X64975Y168623D01*
X65893D01*
X66352Y169082D01*
X67270Y168623D02*
X68189D01*
X67730D01*
Y171378D01*
X67270Y170918D01*
X69566Y168623D02*
X70485D01*
X70025D01*
Y171378D01*
X69566Y170918D01*
X49786Y196623D02*
Y199378D01*
X51163D01*
X51622Y198918D01*
Y198000D01*
X51163Y197541D01*
X49786D01*
X50704D02*
X51622Y196623D01*
X54378D02*
X52541D01*
X54378Y198459D01*
Y198918D01*
X53918Y199378D01*
X53000D01*
X52541Y198918D01*
X55296Y196623D02*
X56214D01*
X55755D01*
Y199378D01*
X55296Y198918D01*
X211393Y108918D02*
X210934Y109378D01*
X210015D01*
X209556Y108918D01*
Y107082D01*
X210015Y106623D01*
X210934D01*
X211393Y107082D01*
X212311Y106623D02*
X213230D01*
X212770D01*
Y109378D01*
X212311Y108918D01*
X216444Y109378D02*
X214607D01*
Y108000D01*
X215525Y108459D01*
X215985D01*
X216444Y108000D01*
Y107082D01*
X215985Y106623D01*
X215066D01*
X214607Y107082D01*
X208827Y116622D02*
Y119378D01*
X210204D01*
X210663Y118918D01*
Y118000D01*
X210204Y117541D01*
X208827D01*
X209745D02*
X210663Y116622D01*
X211582Y118918D02*
X212041Y119378D01*
X212959D01*
X213418Y118918D01*
Y118459D01*
X212959Y118000D01*
X212500D01*
X212959D01*
X213418Y117541D01*
Y117082D01*
X212959Y116622D01*
X212041D01*
X211582Y117082D01*
X214337Y118918D02*
X214796Y119378D01*
X215714D01*
X216173Y118918D01*
Y118459D01*
X215714Y118000D01*
X215255D01*
X215714D01*
X216173Y117541D01*
Y117082D01*
X215714Y116622D01*
X214796D01*
X214337Y117082D01*
X63327Y117122D02*
Y119878D01*
X64704D01*
X65163Y119418D01*
Y118500D01*
X64704Y118041D01*
X63327D01*
X64245D02*
X65163Y117122D01*
X66082Y119418D02*
X66541Y119878D01*
X67459D01*
X67918Y119418D01*
Y118959D01*
X67459Y118500D01*
X67000D01*
X67459D01*
X67918Y118041D01*
Y117582D01*
X67459Y117122D01*
X66541D01*
X66082Y117582D01*
X70214Y117122D02*
Y119878D01*
X68837Y118500D01*
X70673D01*
X96827Y117122D02*
Y119878D01*
X98204D01*
X98663Y119418D01*
Y118500D01*
X98204Y118041D01*
X96827D01*
X97745D02*
X98663Y117122D01*
X99582Y119418D02*
X100041Y119878D01*
X100959D01*
X101418Y119418D01*
Y118959D01*
X100959Y118500D01*
X100500D01*
X100959D01*
X101418Y118041D01*
Y117582D01*
X100959Y117122D01*
X100041D01*
X99582Y117582D01*
X104173Y119878D02*
X102337D01*
Y118500D01*
X103255Y118959D01*
X103714D01*
X104173Y118500D01*
Y117582D01*
X103714Y117122D01*
X102796D01*
X102337Y117582D01*
X157327Y117122D02*
Y119878D01*
X158704D01*
X159163Y119418D01*
Y118500D01*
X158704Y118041D01*
X157327D01*
X158245D02*
X159163Y117122D01*
X160082Y119418D02*
X160541Y119878D01*
X161459D01*
X161918Y119418D01*
Y118959D01*
X161459Y118500D01*
X161000D01*
X161459D01*
X161918Y118041D01*
Y117582D01*
X161459Y117122D01*
X160541D01*
X160082Y117582D01*
X164673Y117122D02*
X162837D01*
X164673Y118959D01*
Y119418D01*
X164214Y119878D01*
X163296D01*
X162837Y119418D01*
X139204Y464878D02*
Y462122D01*
X140582D01*
X141041Y462582D01*
Y464418D01*
X140582Y464878D01*
X139204D01*
X143337Y462122D02*
Y464878D01*
X141959Y463500D01*
X143796D01*
X192515Y464622D02*
Y467378D01*
X193893D01*
X194352Y466918D01*
Y466000D01*
X193893Y465541D01*
X192515D01*
X193434D02*
X194352Y464622D01*
X195270D02*
X196189D01*
X195730D01*
Y467378D01*
X195270Y466918D01*
X197566Y464622D02*
X198485D01*
X198025D01*
Y467378D01*
X197566Y466918D01*
X191556Y403622D02*
Y406378D01*
X192934D01*
X193393Y405918D01*
Y405000D01*
X192934Y404541D01*
X191556D01*
X192475D02*
X193393Y403622D01*
X194311D02*
X195230D01*
X194770D01*
Y406378D01*
X194311Y405918D01*
X198444Y406378D02*
X197525Y405918D01*
X196607Y405000D01*
Y404082D01*
X197066Y403622D01*
X197985D01*
X198444Y404082D01*
Y404541D01*
X197985Y405000D01*
X196607D01*
X158056Y403622D02*
Y406378D01*
X159434D01*
X159893Y405918D01*
Y405000D01*
X159434Y404541D01*
X158056D01*
X158975D02*
X159893Y403622D01*
X160811D02*
X161730D01*
X161270D01*
Y406378D01*
X160811Y405918D01*
X164944Y406378D02*
X163107D01*
Y405000D01*
X164025Y405459D01*
X164485D01*
X164944Y405000D01*
Y404082D01*
X164485Y403622D01*
X163566D01*
X163107Y404082D01*
X125056Y403123D02*
Y405877D01*
X126434D01*
X126893Y405418D01*
Y404500D01*
X126434Y404041D01*
X125056D01*
X125975D02*
X126893Y403123D01*
X127811D02*
X128730D01*
X128270D01*
Y405877D01*
X127811Y405418D01*
X131485Y403123D02*
Y405877D01*
X130107Y404500D01*
X131944D01*
X22663Y477878D02*
X24500Y475122D01*
Y477878D02*
X22663Y475122D01*
X25418D02*
X26337D01*
X25877D01*
Y477878D01*
X25418Y477418D01*
X117908Y393377D02*
Y391082D01*
X118368Y390622D01*
X119286D01*
X119745Y391082D01*
Y393377D01*
X122500Y392918D02*
X122041Y393377D01*
X121123D01*
X120663Y392918D01*
Y392459D01*
X121123Y392000D01*
X122041D01*
X122500Y391541D01*
Y391082D01*
X122041Y390622D01*
X121123D01*
X120663Y391082D01*
X123418Y393377D02*
Y390622D01*
X124796D01*
X125255Y391082D01*
Y391541D01*
X124796Y392000D01*
X123418D01*
X124796D01*
X125255Y392459D01*
Y392918D01*
X124796Y393377D01*
X123418D01*
X126173Y390622D02*
X127092D01*
X126632D01*
Y393377D01*
X126173Y392918D01*
X36800Y418451D02*
Y415696D01*
X38177D01*
X38637Y416155D01*
Y416614D01*
X38177Y417074D01*
X36800D01*
X38177D01*
X38637Y417533D01*
Y417992D01*
X38177Y418451D01*
X36800D01*
X39555Y415696D02*
X40473D01*
X40014D01*
Y418451D01*
X39555Y417992D01*
X255037Y318955D02*
Y320792D01*
X254577Y321251D01*
X253659D01*
X253200Y320792D01*
Y318955D01*
X253659Y318496D01*
X254577D01*
X254118Y319414D02*
X255037Y318496D01*
X254577D02*
X255037Y318955D01*
X255955Y318496D02*
X256873D01*
X256414D01*
Y321251D01*
X255955Y320792D01*
X260200Y297996D02*
Y300751D01*
X261578D01*
X262037Y300292D01*
Y299374D01*
X261578Y298914D01*
X260200D01*
X261118D02*
X262037Y297996D01*
X262955D02*
X263873D01*
X263414D01*
Y300751D01*
X262955Y300292D01*
X249700Y297996D02*
Y300751D01*
X251078D01*
X251537Y300292D01*
Y299374D01*
X251078Y298914D01*
X249700D01*
X250618D02*
X251537Y297996D01*
X254292Y300751D02*
X252455D01*
Y299374D01*
X253373Y299833D01*
X253833D01*
X254292Y299374D01*
Y298455D01*
X253833Y297996D01*
X252914D01*
X252455Y298455D01*
X233300Y386451D02*
Y384155D01*
X233759Y383696D01*
X234678D01*
X235137Y384155D01*
Y386451D01*
X237892Y383696D02*
X236055D01*
X237892Y385533D01*
Y385992D01*
X237433Y386451D01*
X236514D01*
X236055Y385992D01*
X159393Y108418D02*
X158934Y108878D01*
X158015D01*
X157556Y108418D01*
Y106582D01*
X158015Y106123D01*
X158934D01*
X159393Y106582D01*
X160311Y106123D02*
X161230D01*
X160770D01*
Y108878D01*
X160311Y108418D01*
X163985Y106123D02*
Y108878D01*
X162607Y107500D01*
X164444D01*
X193637Y266892D02*
X193177Y267351D01*
X192259D01*
X191800Y266892D01*
Y265055D01*
X192259Y264596D01*
X193177D01*
X193637Y265055D01*
X194555Y264596D02*
X195473D01*
X195014D01*
Y267351D01*
X194555Y266892D01*
X196851D02*
X197310Y267351D01*
X198228D01*
X198688Y266892D01*
Y266433D01*
X198228Y265974D01*
X197769D01*
X198228D01*
X198688Y265514D01*
Y265055D01*
X198228Y264596D01*
X197310D01*
X196851Y265055D01*
X198437Y278192D02*
X197977Y278651D01*
X197059D01*
X196600Y278192D01*
Y276355D01*
X197059Y275896D01*
X197977D01*
X198437Y276355D01*
X199355Y275896D02*
X200273D01*
X199814D01*
Y278651D01*
X199355Y278192D01*
X203488Y275896D02*
X201651D01*
X203488Y277733D01*
Y278192D01*
X203028Y278651D01*
X202110D01*
X201651Y278192D01*
X60700Y242996D02*
Y245751D01*
X62077D01*
X62537Y245292D01*
Y244374D01*
X62077Y243914D01*
X60700D01*
X61618D02*
X62537Y242996D01*
X65292D02*
X63455D01*
X65292Y244833D01*
Y245292D01*
X64833Y245751D01*
X63914D01*
X63455Y245292D01*
X66210D02*
X66669Y245751D01*
X67588D01*
X68047Y245292D01*
Y244833D01*
X67588Y244374D01*
X67128D01*
X67588D01*
X68047Y243914D01*
Y243455D01*
X67588Y242996D01*
X66669D01*
X66210Y243455D01*
X104037Y275251D02*
X103118D01*
X103577D01*
Y272955D01*
X103118Y272496D01*
X102659D01*
X102200Y272955D01*
X104955Y272496D02*
X105873D01*
X105414D01*
Y275251D01*
X104955Y274792D01*
X60537Y215455D02*
Y217292D01*
X60078Y217751D01*
X59159D01*
X58700Y217292D01*
Y215455D01*
X59159Y214996D01*
X60078D01*
X59618Y215914D02*
X60537Y214996D01*
X60078D02*
X60537Y215455D01*
X62832Y214996D02*
Y217751D01*
X61455Y216374D01*
X63292D01*
X38827Y171123D02*
Y173878D01*
X40204D01*
X40663Y173418D01*
Y172500D01*
X40204Y172041D01*
X38827D01*
X39745D02*
X40663Y171123D01*
X43418D02*
X41582D01*
X43418Y172959D01*
Y173418D01*
X42959Y173878D01*
X42041D01*
X41582Y173418D01*
X44337D02*
X44796Y173878D01*
X45714D01*
X46173Y173418D01*
Y171582D01*
X45714Y171123D01*
X44796D01*
X44337Y171582D01*
Y173418D01*
X78200Y242996D02*
Y245751D01*
X79577D01*
X80037Y245292D01*
Y244374D01*
X79577Y243914D01*
X78200D01*
X79118D02*
X80037Y242996D01*
X82792D02*
X80955D01*
X82792Y244833D01*
Y245292D01*
X82332Y245751D01*
X81414D01*
X80955Y245292D01*
X85547Y242996D02*
X83710D01*
X85547Y244833D01*
Y245292D01*
X85088Y245751D01*
X84169D01*
X83710Y245292D01*
X36200Y115996D02*
Y118751D01*
X37578D01*
X38037Y118292D01*
Y117374D01*
X37578Y116914D01*
X36200D01*
X37118D02*
X38037Y115996D01*
X38955D02*
X39873D01*
X39414D01*
Y118751D01*
X38955Y118292D01*
X41251Y118751D02*
X43088D01*
Y118292D01*
X41251Y116455D01*
Y115996D01*
X13337Y118992D02*
X12878Y119451D01*
X11959D01*
X11500Y118992D01*
Y117155D01*
X11959Y116696D01*
X12878D01*
X13337Y117155D01*
X14255Y116696D02*
X15173D01*
X14714D01*
Y119451D01*
X14255Y118992D01*
X16551D02*
X17010Y119451D01*
X17928D01*
X18387Y118992D01*
Y117155D01*
X17928Y116696D01*
X17010D01*
X16551Y117155D01*
Y118992D01*
X50537Y148355D02*
Y150192D01*
X50077Y150651D01*
X49159D01*
X48700Y150192D01*
Y148355D01*
X49159Y147896D01*
X50077D01*
X49618Y148814D02*
X50537Y147896D01*
X50077D02*
X50537Y148355D01*
X53292Y147896D02*
X51455D01*
X53292Y149733D01*
Y150192D01*
X52833Y150651D01*
X51914D01*
X51455Y150192D01*
X33041Y131082D02*
Y132918D01*
X32582Y133378D01*
X31663D01*
X31204Y132918D01*
Y131082D01*
X31663Y130622D01*
X32582D01*
X32122Y131541D02*
X33041Y130622D01*
X32582D02*
X33041Y131082D01*
X33959Y132918D02*
X34418Y133378D01*
X35337D01*
X35796Y132918D01*
Y132459D01*
X35337Y132000D01*
X34877D01*
X35337D01*
X35796Y131541D01*
Y131082D01*
X35337Y130622D01*
X34418D01*
X33959Y131082D01*
X31337Y246492D02*
X30878Y246951D01*
X29959D01*
X29500Y246492D01*
Y244655D01*
X29959Y244196D01*
X30878D01*
X31337Y244655D01*
X32255Y246492D02*
X32714Y246951D01*
X33632D01*
X34092Y246492D01*
Y246033D01*
X33632Y245574D01*
X34092Y245114D01*
Y244655D01*
X33632Y244196D01*
X32714D01*
X32255Y244655D01*
Y245114D01*
X32714Y245574D01*
X32255Y246033D01*
Y246492D01*
X32714Y245574D02*
X33632D01*
X202056Y311623D02*
Y314377D01*
X203434D01*
X203893Y313918D01*
Y313000D01*
X203434Y312541D01*
X202056D01*
X202975D02*
X203893Y311623D01*
X204811D02*
X205730D01*
X205270D01*
Y314377D01*
X204811Y313918D01*
X208944Y311623D02*
X207107D01*
X208944Y313459D01*
Y313918D01*
X208485Y314377D01*
X207566D01*
X207107Y313918D01*
X190400Y391951D02*
Y389196D01*
X191778D01*
X192237Y389655D01*
Y391492D01*
X191778Y391951D01*
X190400D01*
X193155Y389196D02*
X194073D01*
X193614D01*
Y391951D01*
X193155Y391492D01*
X188237Y358592D02*
X187777Y359051D01*
X186859D01*
X186400Y358592D01*
Y356755D01*
X186859Y356296D01*
X187777D01*
X188237Y356755D01*
X190992Y359051D02*
X190073Y358592D01*
X189155Y357674D01*
Y356755D01*
X189614Y356296D01*
X190533D01*
X190992Y356755D01*
Y357214D01*
X190533Y357674D01*
X189155D01*
X100200Y390496D02*
Y393251D01*
X101577D01*
X102037Y392792D01*
Y391874D01*
X101577Y391414D01*
X100200D01*
X101118D02*
X102037Y390496D01*
X104792D02*
X102955D01*
X104792Y392333D01*
Y392792D01*
X104332Y393251D01*
X103414D01*
X102955Y392792D01*
X98900Y369951D02*
Y367196D01*
X100277D01*
X100737Y367655D01*
Y369492D01*
X100277Y369951D01*
X98900D01*
X103492Y367196D02*
X101655D01*
X103492Y369033D01*
Y369492D01*
X103033Y369951D01*
X102114D01*
X101655Y369492D01*
X79037Y396792D02*
X78578Y397251D01*
X77659D01*
X77200Y396792D01*
Y394955D01*
X77659Y394496D01*
X78578D01*
X79037Y394955D01*
X79955Y394496D02*
X80873D01*
X80414D01*
Y397251D01*
X79955Y396792D01*
X118700Y446496D02*
Y449251D01*
X120078D01*
X120537Y448792D01*
Y447874D01*
X120078Y447414D01*
X118700D01*
X119618D02*
X120537Y446496D01*
X121455D02*
X122373D01*
X121914D01*
Y449251D01*
X121455Y448792D01*
X123751D02*
X124210Y449251D01*
X125128D01*
X125588Y448792D01*
Y448333D01*
X125128Y447874D01*
X124669D01*
X125128D01*
X125588Y447414D01*
Y446955D01*
X125128Y446496D01*
X124210D01*
X123751Y446955D01*
X162700Y464496D02*
Y467251D01*
X164077D01*
X164537Y466792D01*
Y465874D01*
X164077Y465414D01*
X162700D01*
X163618D02*
X164537Y464496D01*
X165455Y466792D02*
X165914Y467251D01*
X166832D01*
X167292Y466792D01*
Y466333D01*
X166832Y465874D01*
X167292Y465414D01*
Y464955D01*
X166832Y464496D01*
X165914D01*
X165455Y464955D01*
Y465414D01*
X165914Y465874D01*
X165455Y466333D01*
Y466792D01*
X165914Y465874D02*
X166832D01*
X172200Y464496D02*
Y467251D01*
X173577D01*
X174037Y466792D01*
Y465874D01*
X173577Y465414D01*
X172200D01*
X173118D02*
X174037Y464496D01*
X174955Y464955D02*
X175414Y464496D01*
X176332D01*
X176792Y464955D01*
Y466792D01*
X176332Y467251D01*
X175414D01*
X174955Y466792D01*
Y466333D01*
X175414Y465874D01*
X176792D01*
X181700Y464496D02*
Y467251D01*
X183078D01*
X183537Y466792D01*
Y465874D01*
X183078Y465414D01*
X181700D01*
X182618D02*
X183537Y464496D01*
X184455D02*
X185373D01*
X184914D01*
Y467251D01*
X184455Y466792D01*
X186751D02*
X187210Y467251D01*
X188128D01*
X188588Y466792D01*
Y464955D01*
X188128Y464496D01*
X187210D01*
X186751Y464955D01*
Y466792D01*
X209204Y459622D02*
Y462378D01*
X210582D01*
X211041Y461918D01*
Y461000D01*
X210582Y460541D01*
X209204D01*
X210122D02*
X211041Y459622D01*
X211959Y462378D02*
X213796D01*
Y461918D01*
X211959Y460082D01*
Y459622D01*
X211541Y474418D02*
X211082Y474878D01*
X210163D01*
X209704Y474418D01*
Y472582D01*
X210163Y472122D01*
X211082D01*
X211541Y472582D01*
X214296Y472122D02*
X212459D01*
X214296Y473959D01*
Y474418D01*
X213837Y474878D01*
X212918D01*
X212459Y474418D01*
X180300Y313551D02*
Y310796D01*
X181677D01*
X182137Y311255D01*
Y313092D01*
X181677Y313551D01*
X180300D01*
X183055D02*
X184892D01*
Y313092D01*
X183055Y311255D01*
Y310796D01*
X184892D01*
X185810D02*
X186728D01*
X186269D01*
Y313551D01*
X185810Y313092D01*
X17600Y295451D02*
Y293155D01*
X18059Y292696D01*
X18978D01*
X19437Y293155D01*
Y295451D01*
X21733Y292696D02*
Y295451D01*
X20355Y294074D01*
X22192D01*
X77163Y304448D02*
Y302153D01*
X77622Y301693D01*
X78541D01*
X79000Y302153D01*
Y304448D01*
X79918Y301693D02*
X80837D01*
X80378D01*
Y304448D01*
X79918Y303989D01*
X74837Y325992D02*
X74378Y326451D01*
X73459D01*
X73000Y325992D01*
Y324155D01*
X73459Y323696D01*
X74378D01*
X74837Y324155D01*
X77592Y326451D02*
X75755D01*
Y325074D01*
X76673Y325533D01*
X77132D01*
X77592Y325074D01*
Y324155D01*
X77132Y323696D01*
X76214D01*
X75755Y324155D01*
X51337Y325992D02*
X50877Y326451D01*
X49959D01*
X49500Y325992D01*
Y324155D01*
X49959Y323696D01*
X50877D01*
X51337Y324155D01*
X53632Y323696D02*
Y326451D01*
X52255Y325074D01*
X54092D01*
X70900Y360751D02*
Y358455D01*
X71359Y357996D01*
X72277D01*
X72737Y358455D01*
Y360751D01*
X73655Y360292D02*
X74114Y360751D01*
X75033D01*
X75492Y360292D01*
Y359833D01*
X75033Y359374D01*
X74573D01*
X75033D01*
X75492Y358914D01*
Y358455D01*
X75033Y357996D01*
X74114D01*
X73655Y358455D01*
X36200Y323496D02*
Y326251D01*
X37578D01*
X38037Y325792D01*
Y324874D01*
X37578Y324414D01*
X36200D01*
X37118D02*
X38037Y323496D01*
X40792Y326251D02*
X39873Y325792D01*
X38955Y324874D01*
Y323955D01*
X39414Y323496D01*
X40332D01*
X40792Y323955D01*
Y324414D01*
X40332Y324874D01*
X38955D01*
X12204Y340123D02*
Y342878D01*
X13582D01*
X14041Y342418D01*
Y341500D01*
X13582Y341041D01*
X12204D01*
X13123D02*
X14041Y340123D01*
X16337D02*
Y342878D01*
X14959Y341500D01*
X16796D01*
X12204Y368123D02*
Y370878D01*
X13582D01*
X14041Y370418D01*
Y369500D01*
X13582Y369041D01*
X12204D01*
X13123D02*
X14041Y368123D01*
X14959Y370418D02*
X15418Y370878D01*
X16337D01*
X16796Y370418D01*
Y369959D01*
X16337Y369500D01*
X15878D01*
X16337D01*
X16796Y369041D01*
Y368582D01*
X16337Y368123D01*
X15418D01*
X14959Y368582D01*
X168300Y232496D02*
Y235251D01*
X169677D01*
X170137Y234792D01*
Y233874D01*
X169677Y233414D01*
X168300D01*
X169218D02*
X170137Y232496D01*
X172892D02*
X171055D01*
X172892Y234333D01*
Y234792D01*
X172432Y235251D01*
X171514D01*
X171055Y234792D01*
X175647Y235251D02*
X174728Y234792D01*
X173810Y233874D01*
Y232955D01*
X174269Y232496D01*
X175188D01*
X175647Y232955D01*
Y233414D01*
X175188Y233874D01*
X173810D01*
X150900Y232496D02*
Y235251D01*
X152278D01*
X152737Y234792D01*
Y233874D01*
X152278Y233414D01*
X150900D01*
X151818D02*
X152737Y232496D01*
X155492D02*
X153655D01*
X155492Y234333D01*
Y234792D01*
X155033Y235251D01*
X154114D01*
X153655Y234792D01*
X158247Y235251D02*
X156410D01*
Y233874D01*
X157328Y234333D01*
X157788D01*
X158247Y233874D01*
Y232955D01*
X157788Y232496D01*
X156869D01*
X156410Y232955D01*
X120800Y232496D02*
Y235251D01*
X122178D01*
X122637Y234792D01*
Y233874D01*
X122178Y233414D01*
X120800D01*
X121718D02*
X122637Y232496D01*
X125392D02*
X123555D01*
X125392Y234333D01*
Y234792D01*
X124933Y235251D01*
X124014D01*
X123555Y234792D01*
X127688Y232496D02*
Y235251D01*
X126310Y233874D01*
X128147D01*
X120800Y154496D02*
Y157251D01*
X122178D01*
X122637Y156792D01*
Y155874D01*
X122178Y155414D01*
X120800D01*
X121718D02*
X122637Y154496D01*
X125392D02*
X123555D01*
X125392Y156333D01*
Y156792D01*
X124933Y157251D01*
X124014D01*
X123555Y156792D01*
X126310Y157251D02*
X128147D01*
Y156792D01*
X126310Y154955D01*
Y154496D01*
X166300D02*
Y157251D01*
X167677D01*
X168137Y156792D01*
Y155874D01*
X167677Y155414D01*
X166300D01*
X167218D02*
X168137Y154496D01*
X170892D02*
X169055D01*
X170892Y156333D01*
Y156792D01*
X170432Y157251D01*
X169514D01*
X169055Y156792D01*
X171810Y154955D02*
X172269Y154496D01*
X173188D01*
X173647Y154955D01*
Y156792D01*
X173188Y157251D01*
X172269D01*
X171810Y156792D01*
Y156333D01*
X172269Y155874D01*
X173647D01*
X150900Y154496D02*
Y157251D01*
X152278D01*
X152737Y156792D01*
Y155874D01*
X152278Y155414D01*
X150900D01*
X151818D02*
X152737Y154496D01*
X155492D02*
X153655D01*
X155492Y156333D01*
Y156792D01*
X155033Y157251D01*
X154114D01*
X153655Y156792D01*
X156410D02*
X156869Y157251D01*
X157788D01*
X158247Y156792D01*
Y156333D01*
X157788Y155874D01*
X158247Y155414D01*
Y154955D01*
X157788Y154496D01*
X156869D01*
X156410Y154955D01*
Y155414D01*
X156869Y155874D01*
X156410Y156333D01*
Y156792D01*
X156869Y155874D02*
X157788D01*
X63893Y108918D02*
X63434Y109378D01*
X62515D01*
X62056Y108918D01*
Y107082D01*
X62515Y106623D01*
X63434D01*
X63893Y107082D01*
X64811Y106623D02*
X65730D01*
X65270D01*
Y109378D01*
X64811Y108918D01*
X68944Y109378D02*
X68025Y108918D01*
X67107Y108000D01*
Y107082D01*
X67566Y106623D01*
X68485D01*
X68944Y107082D01*
Y107541D01*
X68485Y108000D01*
X67107D01*
X98393Y108418D02*
X97934Y108878D01*
X97015D01*
X96556Y108418D01*
Y106582D01*
X97015Y106123D01*
X97934D01*
X98393Y106582D01*
X99311Y106123D02*
X100230D01*
X99770D01*
Y108878D01*
X99311Y108418D01*
X101607Y108878D02*
X103444D01*
Y108418D01*
X101607Y106582D01*
Y106123D01*
X122900Y558351D02*
Y555596D01*
Y556974D01*
X124737D01*
Y558351D01*
Y555596D01*
X125655D02*
X126573D01*
X126114D01*
Y558351D01*
X125655Y557892D01*
X202200Y277251D02*
Y274955D01*
X202659Y274496D01*
X203577D01*
X204037Y274955D01*
Y277251D01*
X206792D02*
X204955D01*
Y275874D01*
X205873Y276333D01*
X206332D01*
X206792Y275874D01*
Y274955D01*
X206332Y274496D01*
X205414D01*
X204955Y274955D01*
X42037Y366292D02*
X41578Y366751D01*
X40659D01*
X40200Y366292D01*
Y364455D01*
X40659Y363996D01*
X41578D01*
X42037Y364455D01*
X42955Y366292D02*
X43414Y366751D01*
X44333D01*
X44792Y366292D01*
Y365833D01*
X44333Y365374D01*
X43873D01*
X44333D01*
X44792Y364914D01*
Y364455D01*
X44333Y363996D01*
X43414D01*
X42955Y364455D01*
D19*
X97817Y481564D02*
Y489436D01*
X101752D01*
X103064Y488124D01*
Y485500D01*
X101752Y484188D01*
X97817D01*
X110936Y489436D02*
X105688D01*
Y481564D01*
X110936D01*
X105688Y485500D02*
X108312D01*
X113560Y481564D02*
X116183D01*
X114872D01*
Y489436D01*
X113560Y488124D01*
X10252Y417064D02*
Y424936D01*
X15500Y417064D01*
Y424936D01*
X18124Y417064D02*
X20748D01*
X19436D01*
Y424936D01*
X18124Y423624D01*
X69752Y489936D02*
Y482064D01*
X75000D01*
X77624D02*
X80248D01*
X78936D01*
Y489936D01*
X77624Y488624D01*
M02*
