G04*
G04 #@! TF.GenerationSoftware,Altium Limited,Altium Designer,20.2.6 (244)*
G04*
G04 Layer_Color=8421504*
%FSLAX25Y25*%
%MOIN*%
G70*
G04*
G04 #@! TF.SameCoordinates,9385ED74-4294-42B6-9646-82B243174D78*
G04*
G04*
G04 #@! TF.FilePolarity,Positive*
G04*
G01*
G75*
%ADD20R,0.06000X0.05000*%
%ADD21R,0.05000X0.06000*%
%ADD22R,0.03600X0.05000*%
%ADD23R,0.03600X0.03600*%
%ADD24R,0.06693X0.08661*%
%ADD25R,0.05925X0.09724*%
%ADD26R,0.02362X0.03937*%
%ADD27R,0.03543X0.03150*%
%ADD28R,0.03150X0.03543*%
%ADD29R,0.03600X0.03600*%
%ADD30R,0.05000X0.03600*%
%ADD31O,0.02238X0.07678*%
%ADD32R,0.05906X0.09843*%
%ADD33R,0.03853X0.09485*%
%ADD34R,0.21844X0.22485*%
%ADD35O,0.01063X0.05906*%
%ADD36O,0.05906X0.01063*%
%ADD37R,0.04331X0.06693*%
G36*
X154676Y228575D02*
Y227622D01*
X153219D01*
Y226323D01*
X154676D01*
Y225425D01*
X154479Y225228D01*
X151329D01*
X151132Y225425D01*
Y228575D01*
X151329Y228772D01*
X154479D01*
X154676Y228575D01*
D02*
G37*
G36*
X124642D02*
Y227622D01*
X123185D01*
Y226323D01*
X124642D01*
Y225425D01*
X124445Y225228D01*
X121295D01*
X121098Y225425D01*
Y228575D01*
X121295Y228772D01*
X124445D01*
X124642Y228575D01*
D02*
G37*
G36*
X130902Y228575D02*
Y225425D01*
X130705Y225228D01*
X127555D01*
X127358Y225425D01*
Y226378D01*
X128815D01*
Y227677D01*
X127358D01*
Y228575D01*
X127555Y228772D01*
X130705D01*
X130902Y228575D01*
D02*
G37*
G36*
X35331Y180766D02*
Y176238D01*
X34937Y175845D01*
X31704D01*
X29917Y177652D01*
Y179352D01*
X31704Y181159D01*
X34937D01*
X35331Y180766D01*
D02*
G37*
G36*
X27083Y179351D02*
Y177650D01*
X25296Y175843D01*
X22063D01*
X21669Y176236D01*
Y180764D01*
X22063Y181158D01*
X25296D01*
X27083Y179351D01*
D02*
G37*
G36*
X20831Y171764D02*
Y167236D01*
X20437Y166842D01*
X17204D01*
X15417Y168649D01*
Y170350D01*
X17204Y172157D01*
X20437D01*
X20831Y171764D01*
D02*
G37*
G36*
X12583Y170348D02*
Y168648D01*
X10796Y166841D01*
X7563D01*
X7169Y167234D01*
Y171762D01*
X7563Y172155D01*
X10796D01*
X12583Y170348D01*
D02*
G37*
G36*
X154676Y150575D02*
Y149622D01*
X153219D01*
Y148323D01*
X154676D01*
Y147425D01*
X154479Y147228D01*
X151329D01*
X151132Y147425D01*
Y150575D01*
X151329Y150772D01*
X154479D01*
X154676Y150575D01*
D02*
G37*
G36*
X124642D02*
Y149622D01*
X123185D01*
Y148323D01*
X124642D01*
Y147425D01*
X124445Y147228D01*
X121295D01*
X121098Y147425D01*
Y150575D01*
X121295Y150772D01*
X124445D01*
X124642Y150575D01*
D02*
G37*
G36*
X130902Y150575D02*
Y147425D01*
X130705Y147228D01*
X127555D01*
X127358Y147425D01*
Y148378D01*
X128815D01*
Y149677D01*
X127358D01*
Y150575D01*
X127555Y150772D01*
X130705D01*
X130902Y150575D01*
D02*
G37*
G36*
X160739Y150772D02*
X157589D01*
X157392Y150575D01*
Y149677D01*
X158849D01*
Y148378D01*
X157392D01*
Y147425D01*
X157589Y147228D01*
X160739D01*
X160936Y147425D01*
Y150575D01*
X160739Y150772D01*
D01*
D02*
G37*
G36*
X166761Y147228D02*
X169911D01*
X170108Y147425D01*
Y148323D01*
X168651D01*
Y149622D01*
X170108D01*
Y150575D01*
X169911Y150772D01*
X166761D01*
X166564Y150575D01*
Y147425D01*
X166761Y147228D01*
D01*
D02*
G37*
G36*
X176171Y150772D02*
X173021D01*
X172824Y150575D01*
Y149677D01*
X174281D01*
Y148378D01*
X172824D01*
Y147425D01*
X173021Y147228D01*
X176171D01*
X176368Y147425D01*
Y150575D01*
X176171Y150772D01*
D01*
D02*
G37*
G36*
X171295Y188228D02*
X174445D01*
X174642Y188425D01*
Y189323D01*
X173185D01*
Y190622D01*
X174642D01*
Y191575D01*
X174445Y191772D01*
X171295D01*
X171098Y191575D01*
Y188425D01*
X171295Y188228D01*
D01*
D02*
G37*
G36*
X180705Y191772D02*
X177555D01*
X177358Y191575D01*
Y190677D01*
X178815D01*
Y189378D01*
X177358D01*
Y188425D01*
X177555Y188228D01*
X180705D01*
X180902Y188425D01*
Y191575D01*
X180705Y191772D01*
D01*
D02*
G37*
G36*
X160739Y228772D02*
X157589D01*
X157392Y228575D01*
Y227677D01*
X158849D01*
Y226378D01*
X157392D01*
Y225425D01*
X157589Y225228D01*
X160739D01*
X160936Y225425D01*
Y228575D01*
X160739Y228772D01*
D01*
D02*
G37*
G36*
X168795Y225228D02*
X171945D01*
X172142Y225425D01*
Y226323D01*
X170685D01*
Y227622D01*
X172142D01*
Y228575D01*
X171945Y228772D01*
X168795D01*
X168598Y228575D01*
Y225425D01*
X168795Y225228D01*
D01*
D02*
G37*
G36*
X178205Y228772D02*
X175055D01*
X174858Y228575D01*
Y227677D01*
X176315D01*
Y226378D01*
X174858D01*
Y225425D01*
X175055Y225228D01*
X178205D01*
X178402Y225425D01*
Y228575D01*
X178205Y228772D01*
D01*
D02*
G37*
G36*
X170795Y264728D02*
X173945D01*
X174142Y264925D01*
Y265823D01*
X172685D01*
Y267122D01*
X174142D01*
Y268075D01*
X173945Y268272D01*
X170795D01*
X170598Y268075D01*
Y264925D01*
X170795Y264728D01*
D01*
D02*
G37*
G36*
X180205Y268272D02*
X177055D01*
X176858Y268075D01*
Y267177D01*
X178315D01*
Y265878D01*
X176858D01*
Y264925D01*
X177055Y264728D01*
X180205D01*
X180402Y264925D01*
Y268075D01*
X180205Y268272D01*
D01*
D02*
G37*
D20*
X13500Y236500D02*
D03*
X22500D02*
D03*
X87500Y191000D02*
D03*
X78500D02*
D03*
X67500Y179000D02*
D03*
X58500D02*
D03*
X67500Y191000D02*
D03*
X58500D02*
D03*
X222500Y107500D02*
D03*
X231500D02*
D03*
Y118000D02*
D03*
X222500D02*
D03*
X84500D02*
D03*
X75500D02*
D03*
X118500D02*
D03*
X109500D02*
D03*
X179000D02*
D03*
X170000D02*
D03*
X204000Y405000D02*
D03*
X213000D02*
D03*
X171500D02*
D03*
X180500D02*
D03*
X139000Y404500D02*
D03*
X148000D02*
D03*
X170000Y107500D02*
D03*
X179000D02*
D03*
X32500Y165000D02*
D03*
X41500D02*
D03*
X40500Y109000D02*
D03*
X49500D02*
D03*
X25500D02*
D03*
X16500D02*
D03*
X43500Y236500D02*
D03*
X34500D02*
D03*
X206500Y304500D02*
D03*
X215500D02*
D03*
X63500Y316000D02*
D03*
X54500D02*
D03*
X78000D02*
D03*
X87000D02*
D03*
X123000Y439500D02*
D03*
X132000D02*
D03*
X222500Y460000D02*
D03*
X231500D02*
D03*
Y472500D02*
D03*
X222500D02*
D03*
X118500Y107500D02*
D03*
X109500D02*
D03*
X84500D02*
D03*
X75500D02*
D03*
D21*
X19000Y149500D02*
D03*
Y158500D02*
D03*
X195000Y448000D02*
D03*
Y457000D02*
D03*
X264000Y281500D02*
D03*
Y290500D02*
D03*
X253500Y281500D02*
D03*
Y290500D02*
D03*
X64500Y235500D02*
D03*
Y226500D02*
D03*
X82000Y235500D02*
D03*
Y226500D02*
D03*
X104000Y383000D02*
D03*
X23500Y342000D02*
D03*
Y351000D02*
D03*
X40000Y307000D02*
D03*
Y316000D02*
D03*
X23500Y363500D02*
D03*
Y372500D02*
D03*
X104000Y374000D02*
D03*
X166500Y448000D02*
D03*
Y457000D02*
D03*
X176000D02*
D03*
Y448000D02*
D03*
X185500D02*
D03*
Y457000D02*
D03*
D22*
X82000Y210000D02*
D03*
X64500Y209500D02*
D03*
D23*
X85700Y202000D02*
D03*
X78200D02*
D03*
X60700Y201500D02*
D03*
X68200D02*
D03*
D24*
X150000Y459342D02*
D03*
Y439657D02*
D03*
X195500Y381842D02*
D03*
Y362157D02*
D03*
X104000Y340158D02*
D03*
Y359843D02*
D03*
D25*
X43461Y373138D02*
D03*
X63539D02*
D03*
X43461Y407862D02*
D03*
X63539D02*
D03*
D26*
X259000Y313528D02*
D03*
X262740Y304472D02*
D03*
X255260D02*
D03*
D27*
X194500Y253244D02*
D03*
Y258756D02*
D03*
D28*
X199244Y270000D02*
D03*
X204756D02*
D03*
D29*
X39500Y139000D02*
D03*
Y146500D02*
D03*
X59000Y135200D02*
D03*
Y142700D02*
D03*
D30*
X31500Y142800D02*
D03*
X51000Y139000D02*
D03*
D31*
X89000Y351150D02*
D03*
X84000D02*
D03*
X79000D02*
D03*
X74000D02*
D03*
Y329850D02*
D03*
X79000D02*
D03*
X84000D02*
D03*
X89000D02*
D03*
D32*
X54500Y303000D02*
D03*
X64500D02*
D03*
Y269142D02*
D03*
X54500D02*
D03*
D33*
X21485Y251541D02*
D03*
X39516Y251543D02*
D03*
D34*
X30500Y278500D02*
D03*
D35*
X232327Y268732D02*
D03*
X230358D02*
D03*
X228390D02*
D03*
X226421D02*
D03*
X224453D02*
D03*
X222484D02*
D03*
X220516D02*
D03*
X218547D02*
D03*
X216579D02*
D03*
X214610D02*
D03*
X212642D02*
D03*
X210673D02*
D03*
Y235268D02*
D03*
X212642D02*
D03*
X214610D02*
D03*
X216579D02*
D03*
X218547D02*
D03*
X220516D02*
D03*
X222484D02*
D03*
X224453D02*
D03*
X226421D02*
D03*
X228390D02*
D03*
X230358D02*
D03*
X232327D02*
D03*
D36*
X204768Y262827D02*
D03*
Y260858D02*
D03*
Y258890D02*
D03*
Y256921D02*
D03*
Y254953D02*
D03*
Y252984D02*
D03*
Y251016D02*
D03*
Y249047D02*
D03*
Y247079D02*
D03*
Y245110D02*
D03*
Y243142D02*
D03*
Y241173D02*
D03*
X238232D02*
D03*
Y243142D02*
D03*
Y245110D02*
D03*
Y247079D02*
D03*
Y249047D02*
D03*
Y251016D02*
D03*
Y252984D02*
D03*
Y254953D02*
D03*
Y256921D02*
D03*
Y258890D02*
D03*
Y260858D02*
D03*
Y262827D02*
D03*
D37*
X195693Y304500D02*
D03*
X182307D02*
D03*
M02*
