G04*
G04 #@! TF.GenerationSoftware,Altium Limited,Altium Designer,20.2.6 (244)*
G04*
G04 Layer_Color=32768*
%FSLAX25Y25*%
%MOIN*%
G70*
G04*
G04 #@! TF.SameCoordinates,9385ED74-4294-42B6-9646-82B243174D78*
G04*
G04*
G04 #@! TF.FilePolarity,Positive*
G04*
G01*
G75*
%ADD94C,0.00200*%
G36*
X193866Y552641D02*
X193866Y552543D01*
X193866Y552446D01*
X193727Y552307D01*
X193531Y552307D01*
X193393Y552445D01*
X193393Y552543D01*
X193393Y552641D01*
X193531Y552780D01*
X193727Y552780D01*
X193866Y552641D01*
D02*
G37*
G36*
X77736Y505921D02*
Y505921D01*
D01*
Y505921D01*
D02*
G37*
G36*
X77734Y506017D02*
X77736Y505921D01*
X77734Y505825D01*
X77596Y505690D01*
X77404D01*
X77266Y505825D01*
X77264Y505921D01*
X77266Y506017D01*
X77404Y506152D01*
X77596D01*
X77734Y506017D01*
D02*
G37*
G36*
X111236Y503921D02*
Y503921D01*
D01*
Y503921D01*
D02*
G37*
G36*
X111234Y504017D02*
X111236Y503921D01*
X111234Y503825D01*
X111096Y503690D01*
X110904D01*
X110766Y503825D01*
X110764Y503921D01*
X110766Y504017D01*
X110904Y504152D01*
X111096D01*
X111234Y504017D01*
D02*
G37*
G36*
X73779Y499720D02*
X71220D01*
Y502280D01*
X73779D01*
Y499720D01*
D02*
G37*
G36*
X107280Y497720D02*
X104720D01*
Y500280D01*
X107280D01*
Y497720D01*
D02*
G37*
G36*
X185263Y478646D02*
X185243D01*
Y475103D01*
X180754D01*
Y479591D01*
X180775D01*
Y496756D01*
X180755D01*
Y501244D01*
X180775D01*
Y501874D01*
X185263D01*
Y478646D01*
D02*
G37*
G36*
X168727Y478646D02*
X168708D01*
Y475103D01*
X164219D01*
Y479591D01*
X164239D01*
Y496756D01*
X164219D01*
Y501244D01*
X164239D01*
Y501874D01*
X168727D01*
Y478646D01*
D02*
G37*
G36*
X152191Y478646D02*
X152172D01*
Y475103D01*
X147684D01*
Y479591D01*
X147703D01*
Y496756D01*
X147684D01*
Y501244D01*
X147703D01*
Y501874D01*
X152191D01*
Y478646D01*
D02*
G37*
G36*
X135656Y479591D02*
X135656D01*
Y475103D01*
X131168D01*
Y478646D01*
X131168D01*
Y496756D01*
X131149D01*
Y501244D01*
X131168D01*
Y501874D01*
X135656D01*
Y479591D01*
D02*
G37*
G36*
X152953Y455405D02*
X147047D01*
Y460130D01*
X152953D01*
Y455405D01*
D02*
G37*
G36*
Y438870D02*
X147047D01*
Y443594D01*
X152953D01*
Y438870D01*
D02*
G37*
G36*
X155315Y439106D02*
X155410Y439102D01*
X155541Y438965D01*
X155541Y438774D01*
X155410Y438638D01*
X155315Y438634D01*
X155220Y438638D01*
X155089Y438775D01*
X155089Y438965D01*
X155220Y439102D01*
X155315Y439106D01*
X155315Y439106D01*
D02*
G37*
G36*
X35234Y426017D02*
X35236Y425921D01*
D01*
Y425921D01*
Y425921D01*
X35234Y425825D01*
X35096Y425690D01*
X34904D01*
X34766Y425825D01*
X34764Y425921D01*
X34766Y426017D01*
X34904Y426152D01*
X35096D01*
X35234Y426017D01*
D02*
G37*
G36*
X107027Y426218D02*
X107161Y426080D01*
X107161Y425887D01*
X107026Y425750D01*
X106930Y425748D01*
X106930Y425748D01*
X106834Y425750D01*
X106699Y425888D01*
X106699Y426080D01*
X106834Y426218D01*
X106930Y426220D01*
X107027Y426218D01*
D02*
G37*
G36*
X204984Y424016D02*
X203016D01*
Y425984D01*
X204984D01*
Y424016D01*
D02*
G37*
G36*
X172484D02*
X170516D01*
Y425984D01*
X172484D01*
Y424016D01*
D02*
G37*
G36*
X139984D02*
X138016D01*
Y425984D01*
X139984D01*
Y424016D01*
D02*
G37*
G36*
X101984Y424016D02*
X100016D01*
Y425984D01*
X101984D01*
Y424016D01*
D02*
G37*
G36*
X31280Y419721D02*
X28721D01*
Y422280D01*
X31280D01*
Y419721D01*
D02*
G37*
G36*
X204984Y414016D02*
X203016D01*
Y415984D01*
X204984D01*
Y414016D01*
D02*
G37*
G36*
X172484D02*
X170516D01*
Y415984D01*
X172484D01*
Y414016D01*
D02*
G37*
G36*
X139984D02*
X138016D01*
Y415984D01*
X139984D01*
Y414016D01*
D02*
G37*
G36*
X101984Y414016D02*
X100016D01*
Y415984D01*
X101984D01*
Y414016D01*
D02*
G37*
G36*
X198070Y414252D02*
X198166Y414250D01*
X198301Y414112D01*
X198301Y413920D01*
X198166Y413782D01*
X198070Y413780D01*
X198070Y413780D01*
X197974Y413782D01*
X197839Y413920D01*
X197839Y414113D01*
X197974Y414250D01*
X198070Y414252D01*
X198070Y414252D01*
D02*
G37*
G36*
X165570D02*
X165666Y414250D01*
X165801Y414112D01*
X165801Y413920D01*
X165666Y413782D01*
X165570Y413780D01*
X165570Y413780D01*
X165473Y413782D01*
X165339Y413920D01*
X165339Y414113D01*
X165474Y414250D01*
X165570Y414252D01*
X165570Y414252D01*
D02*
G37*
G36*
X133070D02*
X133166Y414250D01*
X133301Y414112D01*
X133301Y413920D01*
X133166Y413782D01*
X133070Y413780D01*
X133070Y413780D01*
X132974Y413782D01*
X132839Y413920D01*
X132839Y414113D01*
X132974Y414250D01*
X133070Y414252D01*
X133070Y414252D01*
D02*
G37*
G36*
X70468Y410578D02*
X70468Y410480D01*
X70468Y410382D01*
X70330Y410244D01*
X70134Y410244D01*
X69996Y410382D01*
X69996Y410480D01*
X69996Y410578D01*
X70134Y410716D01*
X70330Y410716D01*
X70468Y410578D01*
D02*
G37*
G36*
X65655Y406740D02*
Y402961D01*
X61423D01*
Y406740D01*
Y410480D01*
X65655D01*
Y406740D01*
D02*
G37*
G36*
X45577D02*
Y402961D01*
X41344D01*
Y406740D01*
Y410480D01*
X45577D01*
Y406740D01*
D02*
G37*
G36*
X77220Y389559D02*
X77351Y389422D01*
X77351Y389233D01*
X77220Y389096D01*
X77126Y389091D01*
X77126Y389091D01*
X77031Y389096D01*
X76901Y389233D01*
X76901Y389422D01*
X77031Y389559D01*
X77126Y389563D01*
X77220Y389559D01*
D02*
G37*
G36*
X85558Y389177D02*
X85834Y388900D01*
X85984Y388539D01*
X85984Y388147D01*
X85834Y387785D01*
X85558Y387508D01*
X85196Y387358D01*
X85000D01*
X84804Y387358D01*
X84442Y387508D01*
X84166Y387785D01*
X84016Y388147D01*
X84016Y388539D01*
X84165Y388900D01*
X84442Y389177D01*
X84804Y389327D01*
X85000D01*
X85196Y389327D01*
X85558Y389177D01*
D02*
G37*
G36*
X114350Y380389D02*
X114488Y380251D01*
X114488Y380153D01*
X114488Y380055D01*
X114349Y379917D01*
X114154Y379917D01*
X114016Y380056D01*
X114016Y380153D01*
X114016Y380251D01*
X114154Y380389D01*
X114350Y380389D01*
D02*
G37*
G36*
X198453Y377905D02*
X192547D01*
Y382630D01*
X198453D01*
Y377905D01*
D02*
G37*
G36*
X170511Y376103D02*
X171085Y375867D01*
X171527Y375431D01*
X171770Y374860D01*
X171774Y374550D01*
X171774Y374550D01*
X171770Y374240D01*
X171527Y373669D01*
X171084Y373233D01*
X170510Y372997D01*
X169890Y372998D01*
X169315Y373233D01*
X168874Y373669D01*
X168630Y374240D01*
X168626Y374551D01*
X168630Y374861D01*
X168874Y375432D01*
X169316Y375868D01*
X169890Y376103D01*
X170511Y376103D01*
D02*
G37*
G36*
X122561Y375953D02*
X123135Y375717D01*
X123577Y375281D01*
X123820Y374710D01*
X123824Y374400D01*
X123824Y374400D01*
X123820Y374090D01*
X123576Y373519D01*
X123135Y373083D01*
X122560Y372848D01*
X121940Y372848D01*
X121365Y373083D01*
X120923Y373519D01*
X120680Y374090D01*
X120676Y374400D01*
X120680Y374711D01*
X120924Y375282D01*
X121366Y375717D01*
X121940Y375953D01*
X122561Y375953D01*
D02*
G37*
G36*
X65655Y374221D02*
Y370520D01*
X61423D01*
Y374221D01*
Y378040D01*
X65655D01*
Y374221D01*
D02*
G37*
G36*
X45577D02*
Y370520D01*
X41344D01*
Y374221D01*
Y378040D01*
X45577D01*
Y374221D01*
D02*
G37*
G36*
X85558Y369492D02*
X85834Y369215D01*
X85984Y368854D01*
X85984Y368462D01*
X85834Y368100D01*
X85558Y367823D01*
X85196Y367673D01*
X85000D01*
X84804Y367673D01*
X84442Y367823D01*
X84166Y368100D01*
X84016Y368462D01*
X84016Y368853D01*
X84165Y369215D01*
X84442Y369492D01*
X84804Y369642D01*
X85000D01*
X85196Y369642D01*
X85558Y369492D01*
D02*
G37*
G36*
X198453Y361370D02*
X192547D01*
Y366094D01*
X198453D01*
Y361370D01*
D02*
G37*
G36*
X200815Y361606D02*
X200910Y361601D01*
X201041Y361465D01*
X201041Y361275D01*
X200910Y361138D01*
X200815Y361134D01*
X200720Y361138D01*
X200589Y361275D01*
X200589Y361465D01*
X200720Y361602D01*
X200815Y361606D01*
X200815Y361606D01*
D02*
G37*
G36*
X98685Y360866D02*
X98780Y360862D01*
X98911Y360725D01*
X98911Y360535D01*
X98780Y360398D01*
X98685Y360395D01*
X98685Y360395D01*
X98590Y360399D01*
X98459Y360536D01*
X98459Y360725D01*
X98590Y360862D01*
X98685Y360866D01*
X98685Y360866D01*
D02*
G37*
G36*
X106953Y355906D02*
X101047D01*
Y360630D01*
X106953D01*
Y355906D01*
D02*
G37*
G36*
X170661Y358803D02*
X171235Y358567D01*
X171677Y358131D01*
X171920Y357560D01*
X171924Y357250D01*
X171924Y357250D01*
X171920Y356940D01*
X171677Y356369D01*
X171235Y355933D01*
X170660Y355697D01*
X170040Y355698D01*
X169465Y355933D01*
X169024Y356369D01*
X168780Y356940D01*
X168776Y357250D01*
X168780Y357561D01*
X169024Y358132D01*
X169466Y358568D01*
X170040Y358803D01*
X170661Y358803D01*
D02*
G37*
G36*
X225921Y353283D02*
X225921Y353185D01*
X225921Y353087D01*
X225783Y352949D01*
X225587Y352949D01*
X225449Y353087D01*
X225449Y353185D01*
X225449Y353283D01*
X225587Y353421D01*
X225783Y353421D01*
X225921Y353283D01*
D02*
G37*
G36*
X58162Y349483D02*
X58493Y349158D01*
X58677Y348732D01*
X58682Y348500D01*
X58681Y348500D01*
X58677Y348268D01*
X58493Y347842D01*
X58162Y347517D01*
X57732Y347341D01*
X57268Y347341D01*
X56839Y347517D01*
X56507Y347842D01*
X56323Y348268D01*
X56319Y348500D01*
X56323Y348732D01*
X56507Y349158D01*
X56839Y349483D01*
X57268Y349658D01*
X57732Y349658D01*
X58162Y349483D01*
D02*
G37*
G36*
X48162D02*
X48493Y349158D01*
X48677Y348732D01*
X48682Y348500D01*
X48682Y348500D01*
X48677Y348268D01*
X48493Y347842D01*
X48162Y347517D01*
X47732Y347341D01*
X47268Y347341D01*
X46839Y347517D01*
X46507Y347842D01*
X46323Y348268D01*
X46319Y348500D01*
X46323Y348732D01*
X46507Y349158D01*
X46839Y349483D01*
X47268Y349658D01*
X47732Y349658D01*
X48162Y349483D01*
D02*
G37*
G36*
X89807Y349024D02*
Y348138D01*
X88193D01*
Y349024D01*
Y352311D01*
X89807D01*
Y349024D01*
D02*
G37*
G36*
X84807D02*
Y348138D01*
X83193D01*
Y349024D01*
Y352311D01*
X84807D01*
Y349024D01*
D02*
G37*
G36*
X79807D02*
Y348138D01*
X78193D01*
Y349024D01*
Y352311D01*
X79807D01*
Y349024D01*
D02*
G37*
G36*
X74807D02*
Y348138D01*
X73193D01*
Y349024D01*
Y352311D01*
X74807D01*
Y349024D01*
D02*
G37*
G36*
X106953Y339370D02*
X101047D01*
Y344095D01*
X106953D01*
Y339370D01*
D02*
G37*
G36*
X122611Y341453D02*
X123185Y341217D01*
X123627Y340781D01*
X123870Y340210D01*
X123874Y339900D01*
X123874Y339900D01*
X123870Y339590D01*
X123626Y339019D01*
X123185Y338583D01*
X122610Y338348D01*
X121990Y338348D01*
X121415Y338583D01*
X120974Y339019D01*
X120730Y339590D01*
X120726Y339900D01*
X120730Y340211D01*
X120974Y340782D01*
X121416Y341217D01*
X121990Y341453D01*
X122611Y341453D01*
D02*
G37*
G36*
X170611Y341403D02*
X171185Y341167D01*
X171627Y340731D01*
X171870Y340160D01*
X171874Y339850D01*
X171874Y339850D01*
X171870Y339540D01*
X171626Y338969D01*
X171185Y338533D01*
X170610Y338298D01*
X169990Y338298D01*
X169415Y338533D01*
X168974Y338969D01*
X168730Y339540D01*
X168726Y339850D01*
X168730Y340161D01*
X168974Y340732D01*
X169416Y341167D01*
X169990Y341403D01*
X170611Y341403D01*
D02*
G37*
G36*
X40334Y336196D02*
X40334Y336098D01*
X40334Y336000D01*
X40196Y335862D01*
X40000Y335862D01*
X39862Y336000D01*
X39862Y336098D01*
X39862Y336196D01*
X40000Y336334D01*
X40196Y336334D01*
X40334Y336196D01*
D02*
G37*
G36*
X216661Y334483D02*
X216993Y334158D01*
X217177Y333732D01*
X217181Y333500D01*
X217181Y333500D01*
X217177Y333268D01*
X216993Y332842D01*
X216661Y332517D01*
X216232Y332342D01*
X215768Y332342D01*
X215338Y332517D01*
X215007Y332842D01*
X214823Y333268D01*
X214818Y333500D01*
X214818Y333500D01*
X214823Y333732D01*
X215007Y334158D01*
X215338Y334483D01*
X215768Y334659D01*
X216232Y334659D01*
X216661Y334483D01*
D02*
G37*
G36*
X196661D02*
X196993Y334158D01*
X197177Y333732D01*
X197181Y333500D01*
X197181Y333500D01*
X197177Y333268D01*
X196993Y332842D01*
X196661Y332517D01*
X196232Y332342D01*
X195768Y332342D01*
X195338Y332517D01*
X195007Y332842D01*
X194823Y333268D01*
X194818Y333500D01*
X194818Y333500D01*
X194823Y333732D01*
X195007Y334158D01*
X195338Y334483D01*
X195768Y334659D01*
X196232Y334659D01*
X196661Y334483D01*
D02*
G37*
G36*
X89807Y331937D02*
Y328689D01*
X88193D01*
Y331937D01*
Y332862D01*
X89807D01*
Y331937D01*
D02*
G37*
G36*
X84807D02*
Y328689D01*
X83193D01*
Y331937D01*
Y332862D01*
X84807D01*
Y331937D01*
D02*
G37*
G36*
X79807D02*
Y328689D01*
X78193D01*
Y331937D01*
Y332862D01*
X79807D01*
Y331937D01*
D02*
G37*
G36*
X74807D02*
Y328689D01*
X73193D01*
Y331937D01*
Y332862D01*
X74807D01*
Y331937D01*
D02*
G37*
G36*
X72208Y328689D02*
Y328689D01*
D01*
Y328689D01*
D02*
G37*
G36*
X72206Y328785D02*
X72208Y328689D01*
X72206Y328593D01*
X72068Y328458D01*
X71876D01*
X71738Y328593D01*
X71736Y328689D01*
X71738Y328785D01*
X71876Y328920D01*
X72068D01*
X72206Y328785D01*
D02*
G37*
G36*
X171173Y323866D02*
X171616Y323423D01*
X171856Y322845D01*
Y322532D01*
Y322218D01*
X171616Y321640D01*
X171173Y321197D01*
X170595Y320957D01*
X169968D01*
X169389Y321197D01*
X168947Y321640D01*
X168707Y322218D01*
Y322532D01*
Y322845D01*
X168947Y323423D01*
X169389Y323866D01*
X169968Y324106D01*
X170595D01*
X171173Y323866D01*
D02*
G37*
G36*
X122511Y324003D02*
X123085Y323767D01*
X123527Y323331D01*
X123770Y322760D01*
X123774Y322450D01*
X123774Y322450D01*
X123770Y322140D01*
X123527Y321569D01*
X123084Y321133D01*
X122510Y320898D01*
X121890Y320898D01*
X121315Y321133D01*
X120873Y321569D01*
X120630Y322140D01*
X120626Y322450D01*
X120630Y322761D01*
X120874Y323332D01*
X121316Y323767D01*
X121890Y324003D01*
X122511Y324003D01*
D02*
G37*
G36*
X196111Y307551D02*
X196111Y307453D01*
X196111Y307356D01*
X195973Y307217D01*
X195875Y307217D01*
Y301547D01*
X194301D01*
Y307453D01*
X195639D01*
Y307453D01*
X195639Y307551D01*
X195777Y307689D01*
X195973Y307690D01*
X196111Y307551D01*
D02*
G37*
G36*
X183669Y301547D02*
X182095D01*
Y307453D01*
X183669D01*
Y301547D01*
D02*
G37*
G36*
X66862Y302213D02*
Y298472D01*
X62138D01*
Y302213D01*
Y306150D01*
X66862D01*
Y302213D01*
D02*
G37*
G36*
X56862D02*
Y298472D01*
X52138D01*
Y302213D01*
Y306150D01*
X56862D01*
Y302213D01*
D02*
G37*
G36*
X49277Y285129D02*
X49414Y284997D01*
X49417Y284902D01*
X49417Y284902D01*
X49414Y284806D01*
X49277Y284674D01*
X49086Y284674D01*
X48949Y284806D01*
X48945Y284902D01*
X48945Y284902D01*
X48949Y284997D01*
X49086Y285129D01*
X49277Y285129D01*
D02*
G37*
G36*
X173564Y278338D02*
X173845Y278061D01*
X174001Y277698D01*
X174004Y277500D01*
X174004Y277500D01*
X174001Y277302D01*
X173845Y276939D01*
X173564Y276662D01*
X173198Y276512D01*
X172803Y276512D01*
X172437Y276661D01*
X172155Y276939D01*
X171999Y277302D01*
X171996Y277500D01*
X171996Y277500D01*
X171999Y277697D01*
X172155Y278061D01*
X172437Y278338D01*
X172802Y278488D01*
X173198Y278488D01*
X173564Y278338D01*
D02*
G37*
G36*
X163564D02*
X163845Y278061D01*
X164001Y277698D01*
X164004Y277500D01*
X164004Y277500D01*
X164001Y277302D01*
X163845Y276939D01*
X163564Y276662D01*
X163198Y276512D01*
X162803Y276512D01*
X162437Y276661D01*
X162155Y276939D01*
X161999Y277302D01*
X161996Y277500D01*
X161996Y277500D01*
X161999Y277697D01*
X162155Y278061D01*
X162437Y278338D01*
X162802Y278488D01*
X163198Y278488D01*
X163564Y278338D01*
D02*
G37*
G36*
X153563D02*
X153845Y278061D01*
X154001Y277698D01*
X154004Y277500D01*
X154004Y277500D01*
X154001Y277302D01*
X153845Y276939D01*
X153564Y276662D01*
X153198Y276512D01*
X152803Y276512D01*
X152437Y276661D01*
X152155Y276939D01*
X151999Y277302D01*
X151996Y277500D01*
X151996Y277500D01*
X151999Y277697D01*
X152155Y278061D01*
X152437Y278338D01*
X152802Y278488D01*
X153198Y278488D01*
X153563Y278338D01*
D02*
G37*
G36*
X143563D02*
X143845Y278061D01*
X144001Y277698D01*
X144004Y277500D01*
X144004Y277500D01*
X144001Y277302D01*
X143845Y276939D01*
X143564Y276662D01*
X143198Y276512D01*
X142803Y276512D01*
X142437Y276661D01*
X142155Y276939D01*
X141999Y277302D01*
X141996Y277500D01*
X141996Y277500D01*
X141999Y277697D01*
X142155Y278061D01*
X142437Y278338D01*
X142802Y278488D01*
X143198Y278488D01*
X143563Y278338D01*
D02*
G37*
G36*
X133563D02*
X133845Y278061D01*
X134001Y277698D01*
X134004Y277500D01*
X134004Y277500D01*
X134001Y277302D01*
X133845Y276939D01*
X133564Y276662D01*
X133198Y276512D01*
X132803Y276512D01*
X132437Y276661D01*
X132155Y276939D01*
X131999Y277302D01*
X131996Y277500D01*
X131996Y277500D01*
X131999Y277697D01*
X132155Y278061D01*
X132437Y278338D01*
X132802Y278488D01*
X133198Y278488D01*
X133563Y278338D01*
D02*
G37*
G36*
X123564D02*
X123845Y278061D01*
X124001Y277698D01*
X124004Y277500D01*
X124004Y277500D01*
X124001Y277302D01*
X123845Y276939D01*
X123564Y276662D01*
X123198Y276512D01*
X122803Y276512D01*
X122437Y276661D01*
X122155Y276939D01*
X121999Y277302D01*
X121996Y277500D01*
X121996Y277500D01*
X121999Y277697D01*
X122155Y278061D01*
X122437Y278338D01*
X122802Y278488D01*
X123198Y278488D01*
X123564Y278338D01*
D02*
G37*
G36*
X239453Y269815D02*
X239453Y269717D01*
X239453Y269717D01*
X239453Y269619D01*
X239315Y269480D01*
X239119Y269480D01*
X238980Y269619D01*
X238980Y269717D01*
X238980Y269717D01*
X238980Y269814D01*
X239119Y269953D01*
X239314Y269953D01*
X239453Y269815D01*
D02*
G37*
G36*
X205150Y268425D02*
X203969D01*
Y271575D01*
X205150D01*
Y268425D01*
D02*
G37*
G36*
X200031D02*
X199086D01*
Y268425D01*
X199086Y268327D01*
X198948Y268189D01*
X198752Y268188D01*
X198614Y268327D01*
X198614Y268425D01*
X198613Y268523D01*
X198752Y268661D01*
X198850Y268661D01*
Y271575D01*
X200031D01*
Y268425D01*
D02*
G37*
G36*
X41002Y285669D02*
Y267258D01*
X19998D01*
Y285669D01*
X22099Y287770D01*
X38902D01*
X41002Y285669D01*
D02*
G37*
G36*
X66862Y269890D02*
Y265992D01*
X62138D01*
Y269890D01*
Y273669D01*
X66862D01*
Y269890D01*
D02*
G37*
G36*
X56862D02*
Y265992D01*
X52138D01*
Y269890D01*
Y273669D01*
X56862D01*
Y269890D01*
D02*
G37*
G36*
X50484Y266228D02*
X50582Y266228D01*
X50720Y266090D01*
X50720Y265894D01*
X50582Y265756D01*
X50484Y265756D01*
X50386Y265756D01*
X50248Y265894D01*
X50248Y266090D01*
X50386Y266228D01*
X50484Y266228D01*
D02*
G37*
G36*
X232780Y266961D02*
Y265740D01*
X231874D01*
Y266961D01*
Y269717D01*
X232780D01*
Y266961D01*
D02*
G37*
G36*
X230811D02*
Y265740D01*
X229905D01*
Y266961D01*
Y269717D01*
X230811D01*
Y266961D01*
D02*
G37*
G36*
X228843D02*
Y265740D01*
X227937D01*
Y266961D01*
Y269717D01*
X228843D01*
Y266961D01*
D02*
G37*
G36*
X226874D02*
Y265740D01*
X225968D01*
Y266961D01*
Y269717D01*
X226874D01*
Y266961D01*
D02*
G37*
G36*
X224906D02*
Y265740D01*
X224000D01*
Y266961D01*
Y269717D01*
X224906D01*
Y266961D01*
D02*
G37*
G36*
X222937D02*
Y265740D01*
X222031D01*
Y266961D01*
Y269717D01*
X222937D01*
Y266961D01*
D02*
G37*
G36*
X220969D02*
Y265740D01*
X220063D01*
Y266961D01*
Y269717D01*
X220969D01*
Y266961D01*
D02*
G37*
G36*
X219000D02*
Y265740D01*
X218094D01*
Y266961D01*
Y269717D01*
X219000D01*
Y266961D01*
D02*
G37*
G36*
X217032D02*
Y265740D01*
X216126D01*
Y266961D01*
Y269717D01*
X217032D01*
Y266961D01*
D02*
G37*
G36*
X215063D02*
Y265740D01*
X214157D01*
Y266961D01*
Y269717D01*
X215063D01*
Y266961D01*
D02*
G37*
G36*
X213095D02*
Y265740D01*
X212189D01*
Y266961D01*
Y269717D01*
X213095D01*
Y266961D01*
D02*
G37*
G36*
X211126D02*
Y265740D01*
X210220D01*
Y266961D01*
Y269717D01*
X211126D01*
Y266961D01*
D02*
G37*
G36*
X173531Y264925D02*
X172586D01*
Y264925D01*
X172586Y264827D01*
X172448Y264689D01*
X172252Y264689D01*
X172114Y264827D01*
X172114Y264925D01*
X172114Y265023D01*
X172252Y265161D01*
X172350Y265161D01*
Y268075D01*
X173531D01*
Y264925D01*
D02*
G37*
G36*
X178650D02*
X177469D01*
Y268075D01*
X178650D01*
Y264925D01*
D02*
G37*
G36*
X239216Y262374D02*
X235240D01*
Y263280D01*
X239216D01*
Y262374D01*
D02*
G37*
G36*
X207760D02*
X203783D01*
Y263280D01*
X207760D01*
Y262374D01*
D02*
G37*
G36*
X239216Y260405D02*
X235240D01*
Y261311D01*
X239216D01*
Y260405D01*
D02*
G37*
G36*
X207760D02*
X203783D01*
Y261311D01*
X207760D01*
Y260405D01*
D02*
G37*
G36*
X239216Y258437D02*
X235240D01*
Y259343D01*
X239216D01*
Y258437D01*
D02*
G37*
G36*
X207760D02*
X203783D01*
Y259343D01*
X207760D01*
Y258437D01*
D02*
G37*
G36*
X196075Y257968D02*
X192925D01*
Y259150D01*
X196075D01*
Y257968D01*
D02*
G37*
G36*
X239216Y256468D02*
X235240D01*
Y257374D01*
X239216D01*
Y256468D01*
D02*
G37*
G36*
X207760D02*
X203783D01*
Y257374D01*
X207760D01*
Y256468D01*
D02*
G37*
G36*
X239216Y254500D02*
X235240D01*
Y255406D01*
X239216D01*
Y254500D01*
D02*
G37*
G36*
X207760D02*
X203783D01*
Y255406D01*
X207760D01*
Y254500D01*
D02*
G37*
G36*
X196075Y253086D02*
X196075D01*
X196173Y253086D01*
X196311Y252948D01*
X196312Y252752D01*
X196173Y252614D01*
X196075Y252613D01*
X195977Y252613D01*
X195839Y252752D01*
X195839Y252850D01*
X192925D01*
Y254031D01*
X196075D01*
Y253086D01*
D02*
G37*
G36*
X239216Y252531D02*
X235240D01*
Y253437D01*
X239216D01*
Y252531D01*
D02*
G37*
G36*
X207760D02*
X203783D01*
Y253437D01*
X207760D01*
Y252531D01*
D02*
G37*
G36*
X239216Y250563D02*
X235240D01*
Y251469D01*
X239216D01*
Y250563D01*
D02*
G37*
G36*
X207760D02*
X203783D01*
Y251469D01*
X207760D01*
Y250563D01*
D02*
G37*
G36*
X41091Y253505D02*
Y248784D01*
X37942D01*
Y253505D01*
Y259372D01*
X41091D01*
Y253505D01*
D02*
G37*
G36*
X23059Y253510D02*
X23059D01*
Y248784D01*
X19909D01*
Y253504D01*
X19909D01*
Y259370D01*
X23059D01*
Y253510D01*
D02*
G37*
G36*
X239216Y248594D02*
X235240D01*
Y249500D01*
X239216D01*
Y248594D01*
D02*
G37*
G36*
X207760D02*
X203783D01*
Y249500D01*
X207760D01*
Y248594D01*
D02*
G37*
G36*
X17745Y248882D02*
X17745Y248687D01*
X17606Y248548D01*
X17508Y248548D01*
X17410Y248548D01*
X17272Y248686D01*
X17272Y248882D01*
X17410Y249021D01*
X17508Y249021D01*
X17606Y249021D01*
X17745Y248882D01*
D02*
G37*
G36*
X239216Y246626D02*
X235240D01*
Y247532D01*
X239216D01*
Y246626D01*
D02*
G37*
G36*
X207760D02*
X203783D01*
Y247532D01*
X207760D01*
Y246626D01*
D02*
G37*
G36*
X239216Y244657D02*
X235240D01*
Y245563D01*
X239216D01*
Y244657D01*
D02*
G37*
G36*
X207760D02*
X203783D01*
Y245563D01*
X207760D01*
Y244657D01*
D02*
G37*
G36*
X239216Y242689D02*
X235240D01*
Y243595D01*
X239216D01*
Y242689D01*
D02*
G37*
G36*
X207760D02*
X203783D01*
Y243595D01*
X207760D01*
Y242689D01*
D02*
G37*
G36*
X239216Y240720D02*
X235240D01*
Y241626D01*
X239216D01*
Y240720D01*
D02*
G37*
G36*
X207760D02*
X203783D01*
Y241626D01*
X207760D01*
Y240720D01*
D02*
G37*
G36*
X232780Y237000D02*
Y234283D01*
X231874D01*
Y237000D01*
Y238260D01*
X232780D01*
Y237000D01*
D02*
G37*
G36*
X230811D02*
Y234283D01*
X229905D01*
Y237000D01*
Y238260D01*
X230811D01*
Y237000D01*
D02*
G37*
G36*
X228843D02*
Y234283D01*
X227937D01*
Y237000D01*
Y238260D01*
X228843D01*
Y237000D01*
D02*
G37*
G36*
X226874D02*
Y234283D01*
X225968D01*
Y237000D01*
Y238260D01*
X226874D01*
Y237000D01*
D02*
G37*
G36*
X224906D02*
Y234283D01*
X224000D01*
Y237000D01*
Y238260D01*
X224906D01*
Y237000D01*
D02*
G37*
G36*
X222937D02*
Y234283D01*
X222031D01*
Y237000D01*
Y238260D01*
X222937D01*
Y237000D01*
D02*
G37*
G36*
X220969D02*
Y234283D01*
X220063D01*
Y237000D01*
Y238260D01*
X220969D01*
Y237000D01*
D02*
G37*
G36*
X219000D02*
Y234283D01*
X218094D01*
Y237000D01*
Y238260D01*
X219000D01*
Y237000D01*
D02*
G37*
G36*
X217032D02*
Y234283D01*
X216126D01*
Y237000D01*
Y238260D01*
X217032D01*
Y237000D01*
D02*
G37*
G36*
X215063D02*
Y234283D01*
X214157D01*
Y237000D01*
Y238260D01*
X215063D01*
Y237000D01*
D02*
G37*
G36*
X213095D02*
Y234283D01*
X212189D01*
Y237000D01*
Y238260D01*
X213095D01*
Y237000D01*
D02*
G37*
G36*
X211126D02*
Y234283D01*
X210220D01*
Y237000D01*
Y238260D01*
X211126D01*
Y237000D01*
D02*
G37*
G36*
X176748Y228811D02*
X176886Y228673D01*
X176886Y228575D01*
X176886Y228477D01*
X176748Y228339D01*
X176650Y228339D01*
Y225425D01*
X175469D01*
Y228575D01*
X176414D01*
Y228575D01*
X176414Y228673D01*
X176552Y228811D01*
X176748Y228811D01*
D02*
G37*
G36*
X159282D02*
X159420Y228673D01*
X159420Y228575D01*
X159420Y228477D01*
X159282Y228339D01*
X159184Y228339D01*
Y225425D01*
X158002D01*
Y228575D01*
X158948D01*
Y228575D01*
X158948Y228673D01*
X159086Y228811D01*
X159282Y228811D01*
D02*
G37*
G36*
X129248D02*
X129386Y228673D01*
X129386Y228575D01*
X129386Y228477D01*
X129248Y228339D01*
X129150Y228339D01*
Y225425D01*
X127969D01*
Y228575D01*
X128914D01*
Y228575D01*
X128914Y228673D01*
X129052Y228811D01*
X129248Y228811D01*
D02*
G37*
G36*
X171531Y225425D02*
X170350D01*
Y228575D01*
X171531D01*
Y225425D01*
D02*
G37*
G36*
X154066D02*
X152884D01*
Y228575D01*
X154066D01*
Y225425D01*
D02*
G37*
G36*
X124031D02*
X122850D01*
Y228575D01*
X124031D01*
Y225425D01*
D02*
G37*
G36*
X46921Y224783D02*
X46921Y224685D01*
X46921Y224587D01*
X46783Y224449D01*
X46587Y224449D01*
X46449Y224587D01*
X46449Y224685D01*
X46449Y224783D01*
X46587Y224921D01*
X46783Y224921D01*
X46921Y224783D01*
D02*
G37*
G36*
X173564Y218338D02*
X173845Y218061D01*
X174001Y217698D01*
X174004Y217500D01*
X174004Y217500D01*
X174001Y217302D01*
X173845Y216939D01*
X173564Y216662D01*
X173198Y216512D01*
X172803Y216512D01*
X172437Y216662D01*
X172155Y216939D01*
X171999Y217302D01*
X171996Y217500D01*
X171996Y217500D01*
X171999Y217697D01*
X172155Y218061D01*
X172437Y218338D01*
X172802Y218488D01*
X173198Y218488D01*
X173564Y218338D01*
D02*
G37*
G36*
X163564D02*
X163845Y218061D01*
X164001Y217698D01*
X164004Y217500D01*
X164004Y217500D01*
X164001Y217302D01*
X163845Y216939D01*
X163564Y216662D01*
X163198Y216512D01*
X162803Y216512D01*
X162437Y216662D01*
X162155Y216939D01*
X161999Y217302D01*
X161996Y217500D01*
X161996Y217500D01*
X161999Y217697D01*
X162155Y218061D01*
X162437Y218338D01*
X162802Y218488D01*
X163198Y218488D01*
X163564Y218338D01*
D02*
G37*
G36*
X153563D02*
X153845Y218061D01*
X154001Y217698D01*
X154004Y217500D01*
X154004Y217500D01*
X154001Y217302D01*
X153845Y216939D01*
X153564Y216662D01*
X153198Y216512D01*
X152803Y216512D01*
X152437Y216662D01*
X152155Y216939D01*
X151999Y217302D01*
X151996Y217500D01*
X151996Y217500D01*
X151999Y217697D01*
X152155Y218061D01*
X152437Y218338D01*
X152802Y218488D01*
X153198Y218488D01*
X153563Y218338D01*
D02*
G37*
G36*
X143563D02*
X143845Y218061D01*
X144001Y217698D01*
X144004Y217500D01*
X144004Y217500D01*
X144001Y217302D01*
X143845Y216939D01*
X143564Y216662D01*
X143198Y216512D01*
X142803Y216512D01*
X142437Y216662D01*
X142155Y216939D01*
X141999Y217302D01*
X141996Y217500D01*
X141996Y217500D01*
X141999Y217697D01*
X142155Y218061D01*
X142437Y218338D01*
X142802Y218488D01*
X143198Y218488D01*
X143563Y218338D01*
D02*
G37*
G36*
X133563D02*
X133845Y218061D01*
X134001Y217698D01*
X134004Y217500D01*
X134004Y217500D01*
X134001Y217302D01*
X133845Y216939D01*
X133564Y216662D01*
X133198Y216512D01*
X132803Y216512D01*
X132437Y216662D01*
X132155Y216939D01*
X131999Y217302D01*
X131996Y217500D01*
X131996Y217500D01*
X131999Y217697D01*
X132155Y218061D01*
X132437Y218338D01*
X132802Y218488D01*
X133198Y218488D01*
X133563Y218338D01*
D02*
G37*
G36*
X123564D02*
X123845Y218061D01*
X124001Y217698D01*
X124004Y217500D01*
X124004Y217500D01*
X124001Y217302D01*
X123845Y216939D01*
X123564Y216662D01*
X123198Y216512D01*
X122803Y216512D01*
X122437Y216662D01*
X122155Y216939D01*
X121999Y217302D01*
X121996Y217500D01*
X121996Y217500D01*
X121999Y217697D01*
X122155Y218061D01*
X122437Y218338D01*
X122802Y218488D01*
X123198Y218488D01*
X123564Y218338D01*
D02*
G37*
G36*
X49277Y206629D02*
X49414Y206497D01*
X49417Y206402D01*
X49417Y206402D01*
X49414Y206306D01*
X49277Y206174D01*
X49086Y206174D01*
X48949Y206307D01*
X48945Y206402D01*
X48945Y206402D01*
X48949Y206497D01*
X49086Y206629D01*
X49277Y206629D01*
D02*
G37*
G36*
X37661Y205983D02*
X37993Y205658D01*
X38177Y205232D01*
X38181Y205000D01*
X38181Y205000D01*
X38177Y204768D01*
X37993Y204342D01*
X37661Y204017D01*
X37232Y203842D01*
X36768Y203842D01*
X36338Y204017D01*
X36007Y204342D01*
X35823Y204768D01*
X35818Y205000D01*
X35818Y205000D01*
X35823Y205232D01*
X36007Y205658D01*
X36338Y205983D01*
X36768Y206158D01*
X37232Y206158D01*
X37661Y205983D01*
D02*
G37*
G36*
X17661D02*
X17993Y205658D01*
X18177Y205232D01*
X18181Y205000D01*
X18181Y205000D01*
X18177Y204768D01*
X17993Y204342D01*
X17661Y204017D01*
X17232Y203842D01*
X16768Y203842D01*
X16338Y204017D01*
X16007Y204342D01*
X15823Y204768D01*
X15818Y205000D01*
X15819Y205000D01*
X15823Y205232D01*
X16007Y205658D01*
X16338Y205983D01*
X16768Y206158D01*
X17232Y206158D01*
X17661Y205983D01*
D02*
G37*
G36*
X173564Y199838D02*
X173845Y199561D01*
X174001Y199198D01*
X174004Y199000D01*
X174004Y199000D01*
X174001Y198802D01*
X173845Y198439D01*
X173564Y198162D01*
X173198Y198012D01*
X172803Y198012D01*
X172437Y198162D01*
X172155Y198439D01*
X171999Y198802D01*
X171996Y199000D01*
X171996Y199000D01*
X171999Y199197D01*
X172155Y199561D01*
X172437Y199838D01*
X172802Y199988D01*
X173198Y199988D01*
X173564Y199838D01*
D02*
G37*
G36*
X163564D02*
X163845Y199561D01*
X164001Y199198D01*
X164004Y199000D01*
X164004Y199000D01*
X164001Y198802D01*
X163845Y198439D01*
X163564Y198162D01*
X163198Y198012D01*
X162803Y198012D01*
X162437Y198162D01*
X162155Y198439D01*
X161999Y198802D01*
X161996Y199000D01*
X161996Y199000D01*
X161999Y199197D01*
X162155Y199561D01*
X162437Y199838D01*
X162802Y199988D01*
X163198Y199988D01*
X163564Y199838D01*
D02*
G37*
G36*
X153563D02*
X153845Y199561D01*
X154001Y199198D01*
X154004Y199000D01*
X154004Y199000D01*
X154001Y198802D01*
X153845Y198439D01*
X153564Y198162D01*
X153198Y198012D01*
X152803Y198012D01*
X152437Y198162D01*
X152155Y198439D01*
X151999Y198802D01*
X151996Y199000D01*
X151996Y199000D01*
X151999Y199197D01*
X152155Y199561D01*
X152437Y199838D01*
X152802Y199988D01*
X153198Y199988D01*
X153563Y199838D01*
D02*
G37*
G36*
X143563D02*
X143845Y199561D01*
X144001Y199198D01*
X144004Y199000D01*
X144004Y199000D01*
X144001Y198802D01*
X143845Y198439D01*
X143564Y198162D01*
X143198Y198012D01*
X142803Y198012D01*
X142437Y198162D01*
X142155Y198439D01*
X141999Y198802D01*
X141996Y199000D01*
X141996Y199000D01*
X141999Y199197D01*
X142155Y199561D01*
X142437Y199838D01*
X142802Y199988D01*
X143198Y199988D01*
X143563Y199838D01*
D02*
G37*
G36*
X133563D02*
X133845Y199561D01*
X134001Y199198D01*
X134004Y199000D01*
X134004Y199000D01*
X134001Y198802D01*
X133845Y198439D01*
X133564Y198162D01*
X133198Y198012D01*
X132803Y198012D01*
X132437Y198162D01*
X132155Y198439D01*
X131999Y198802D01*
X131996Y199000D01*
X131996Y199000D01*
X131999Y199197D01*
X132155Y199561D01*
X132437Y199838D01*
X132802Y199988D01*
X133198Y199988D01*
X133563Y199838D01*
D02*
G37*
G36*
X123564D02*
X123845Y199561D01*
X124001Y199198D01*
X124004Y199000D01*
X124004Y199000D01*
X124001Y198802D01*
X123845Y198439D01*
X123564Y198162D01*
X123198Y198012D01*
X122803Y198012D01*
X122437Y198162D01*
X122155Y198439D01*
X121999Y198802D01*
X121996Y199000D01*
X121996Y199000D01*
X121999Y199197D01*
X122155Y199561D01*
X122437Y199838D01*
X122802Y199988D01*
X123198Y199988D01*
X123564Y199838D01*
D02*
G37*
G36*
X174031Y188425D02*
X173086D01*
Y188425D01*
X173086Y188327D01*
X172948Y188189D01*
X172752Y188189D01*
X172614Y188327D01*
X172614Y188425D01*
X172614Y188523D01*
X172752Y188661D01*
X172850Y188661D01*
Y191575D01*
X174031D01*
Y188425D01*
D02*
G37*
G36*
X179150D02*
X177969D01*
Y191575D01*
X179150D01*
Y188425D01*
D02*
G37*
G36*
X32437Y176040D02*
X30862D01*
Y180961D01*
X32437D01*
Y176040D01*
D02*
G37*
G36*
X24799Y175941D02*
Y175941D01*
D01*
Y175941D01*
D02*
G37*
G36*
X26138Y176040D02*
X24791D01*
X24795Y176036D01*
X24799Y175941D01*
X24795Y175846D01*
X24658Y175715D01*
X24468D01*
X24331Y175846D01*
X24327Y175941D01*
X24331Y176036D01*
X24468Y176167D01*
X24563D01*
Y180961D01*
X26138D01*
Y176040D01*
D02*
G37*
G36*
X18169Y172154D02*
X18173Y172059D01*
X18169Y171964D01*
X18032Y171833D01*
X17937D01*
Y167039D01*
X16362D01*
Y171960D01*
X17709D01*
X17705Y171964D01*
X17701Y172059D01*
Y172059D01*
Y172059D01*
D01*
X17705Y172154D01*
X17842Y172285D01*
X18032D01*
X18169Y172154D01*
D02*
G37*
G36*
X11638Y167039D02*
X10063D01*
Y171960D01*
X11638D01*
Y167039D01*
D02*
G37*
G36*
X174714Y150811D02*
X174852Y150673D01*
X174852Y150575D01*
X174852Y150477D01*
X174714Y150339D01*
X174616Y150339D01*
Y147425D01*
X173434D01*
Y150575D01*
X174380D01*
Y150575D01*
X174380Y150673D01*
X174518Y150811D01*
X174714Y150811D01*
D02*
G37*
G36*
X159282D02*
X159420Y150673D01*
X159420Y150575D01*
X159420Y150477D01*
X159282Y150339D01*
X159184Y150339D01*
Y147425D01*
X158002D01*
Y150575D01*
X158948D01*
Y150575D01*
X158948Y150673D01*
X159086Y150811D01*
X159282Y150811D01*
D02*
G37*
G36*
X129248D02*
X129386Y150673D01*
X129386Y150575D01*
X129386Y150477D01*
X129248Y150339D01*
X129150Y150339D01*
Y147425D01*
X127969D01*
Y150575D01*
X128914D01*
Y150575D01*
X128914Y150673D01*
X129052Y150811D01*
X129248Y150811D01*
D02*
G37*
G36*
X169498Y147425D02*
X168316D01*
Y150575D01*
X169498D01*
Y147425D01*
D02*
G37*
G36*
X154066D02*
X152884D01*
Y150575D01*
X154066D01*
Y147425D01*
D02*
G37*
G36*
X124031D02*
X122850D01*
Y150575D01*
X124031D01*
Y147425D01*
D02*
G37*
G36*
X173564Y139838D02*
X173845Y139561D01*
X174001Y139198D01*
X174004Y139000D01*
X174004Y139000D01*
X174001Y138802D01*
X173845Y138439D01*
X173564Y138162D01*
X173198Y138012D01*
X172803Y138012D01*
X172437Y138162D01*
X172155Y138439D01*
X171999Y138802D01*
X171996Y139000D01*
X171996Y139000D01*
X171999Y139197D01*
X172155Y139561D01*
X172437Y139838D01*
X172802Y139988D01*
X173198Y139988D01*
X173564Y139838D01*
D02*
G37*
G36*
X163564D02*
X163845Y139561D01*
X164001Y139198D01*
X164004Y139000D01*
X164004Y139000D01*
X164001Y138802D01*
X163845Y138439D01*
X163564Y138162D01*
X163198Y138012D01*
X162803Y138012D01*
X162437Y138162D01*
X162155Y138439D01*
X161999Y138802D01*
X161996Y139000D01*
X161996Y139000D01*
X161999Y139197D01*
X162155Y139561D01*
X162437Y139838D01*
X162802Y139988D01*
X163198Y139988D01*
X163564Y139838D01*
D02*
G37*
G36*
X153563D02*
X153845Y139561D01*
X154001Y139198D01*
X154004Y139000D01*
X154004Y139000D01*
X154001Y138802D01*
X153845Y138439D01*
X153564Y138162D01*
X153198Y138012D01*
X152803Y138012D01*
X152437Y138162D01*
X152155Y138439D01*
X151999Y138802D01*
X151996Y139000D01*
X151996Y139000D01*
X151999Y139197D01*
X152155Y139561D01*
X152437Y139838D01*
X152802Y139988D01*
X153198Y139988D01*
X153563Y139838D01*
D02*
G37*
G36*
X143563D02*
X143845Y139561D01*
X144001Y139198D01*
X144004Y139000D01*
X144004Y139000D01*
X144001Y138802D01*
X143845Y138439D01*
X143564Y138162D01*
X143198Y138012D01*
X142803Y138012D01*
X142437Y138162D01*
X142155Y138439D01*
X141999Y138802D01*
X141996Y139000D01*
X141996Y139000D01*
X141999Y139197D01*
X142155Y139561D01*
X142437Y139838D01*
X142802Y139988D01*
X143198Y139988D01*
X143563Y139838D01*
D02*
G37*
G36*
X133563D02*
X133845Y139561D01*
X134001Y139198D01*
X134004Y139000D01*
X134004Y139000D01*
X134001Y138802D01*
X133845Y138439D01*
X133564Y138162D01*
X133198Y138012D01*
X132803Y138012D01*
X132437Y138162D01*
X132155Y138439D01*
X131999Y138802D01*
X131996Y139000D01*
X131996Y139000D01*
X131999Y139197D01*
X132155Y139561D01*
X132437Y139838D01*
X132802Y139988D01*
X133198Y139988D01*
X133563Y139838D01*
D02*
G37*
G36*
X123564D02*
X123845Y139561D01*
X124001Y139198D01*
X124004Y139000D01*
X124004Y139000D01*
X124001Y138802D01*
X123845Y138439D01*
X123564Y138162D01*
X123198Y138012D01*
X122803Y138012D01*
X122437Y138162D01*
X122155Y138439D01*
X121999Y138802D01*
X121996Y139000D01*
X121996Y139000D01*
X121999Y139197D01*
X122155Y139561D01*
X122437Y139838D01*
X122802Y139988D01*
X123198Y139988D01*
X123564Y139838D01*
D02*
G37*
G36*
X244310Y95059D02*
Y91083D01*
X240373D01*
Y95059D01*
Y97421D01*
X244310D01*
Y95059D01*
D02*
G37*
G36*
X224626D02*
Y91083D01*
X220690D01*
Y95059D01*
Y97421D01*
X224626D01*
Y95059D01*
D02*
G37*
G36*
X184977D02*
Y91083D01*
X181040D01*
Y95059D01*
Y97421D01*
X184977D01*
Y95059D01*
D02*
G37*
G36*
X165293D02*
Y91083D01*
X161356D01*
Y95059D01*
Y97421D01*
X165293D01*
Y95059D01*
D02*
G37*
G36*
X125644D02*
Y91083D01*
X121707D01*
Y95059D01*
Y97421D01*
X125644D01*
Y95059D01*
D02*
G37*
G36*
X105960D02*
Y91083D01*
X102023D01*
Y95059D01*
Y97421D01*
X105960D01*
Y95059D01*
D02*
G37*
G36*
X66311D02*
Y91083D01*
X62374D01*
Y95059D01*
Y97421D01*
X66311D01*
Y95059D01*
D02*
G37*
G36*
X46626D02*
Y91083D01*
X42689D01*
Y95059D01*
Y97421D01*
X46626D01*
Y95059D01*
D02*
G37*
G36*
X244310Y39902D02*
Y37579D01*
X240373D01*
Y39902D01*
Y43917D01*
X244310D01*
Y39902D01*
D02*
G37*
G36*
X224626D02*
Y37579D01*
X220690D01*
Y39902D01*
Y43917D01*
X224626D01*
Y39902D01*
D02*
G37*
G36*
X184977D02*
Y37579D01*
X181040D01*
Y39902D01*
Y43917D01*
X184977D01*
Y39902D01*
D02*
G37*
G36*
X165293D02*
Y37579D01*
X161356D01*
Y39902D01*
Y43917D01*
X165293D01*
Y39902D01*
D02*
G37*
G36*
X125644D02*
Y37579D01*
X121707D01*
Y39902D01*
Y43917D01*
X125644D01*
Y39902D01*
D02*
G37*
G36*
X105960D02*
Y37579D01*
X102023D01*
Y39902D01*
Y43917D01*
X105960D01*
Y39902D01*
D02*
G37*
G36*
X66311D02*
Y37579D01*
X62374D01*
Y39902D01*
Y43917D01*
X66311D01*
Y39902D01*
D02*
G37*
G36*
X46626D02*
Y37579D01*
X42689D01*
Y39902D01*
Y43917D01*
X46626D01*
Y39902D01*
D02*
G37*
G36*
X256122Y37815D02*
X256220Y37815D01*
X256358Y37677D01*
X256358Y37481D01*
X256220Y37343D01*
X256122Y37343D01*
X256024Y37343D01*
X255886Y37481D01*
X255886Y37677D01*
X256024Y37815D01*
X256122Y37815D01*
D02*
G37*
G36*
X196789D02*
X196887Y37815D01*
X197025Y37677D01*
X197025Y37481D01*
X196886Y37343D01*
X196789Y37343D01*
X196691Y37343D01*
X196552Y37481D01*
X196552Y37677D01*
X196691Y37815D01*
X196789Y37815D01*
D02*
G37*
G36*
X137455D02*
X137553Y37815D01*
X137691Y37677D01*
X137691Y37481D01*
X137553Y37343D01*
X137455Y37343D01*
X137357Y37343D01*
X137219Y37481D01*
X137219Y37677D01*
X137357Y37815D01*
X137455Y37815D01*
D02*
G37*
G36*
X78122D02*
X78220Y37815D01*
X78358Y37677D01*
X78358Y37481D01*
X78220Y37343D01*
X78122Y37343D01*
X78024Y37343D01*
X77886Y37481D01*
X77886Y37677D01*
X78024Y37815D01*
X78122Y37815D01*
D02*
G37*
D94*
X7315Y205000D02*
G03*
X46685Y205000I19685J0D01*
G01*
D02*
G03*
X7315Y205000I-19685J0D01*
G01*
X204000Y414094D02*
G03*
X204000Y425906I24J5906D01*
G01*
X204000D02*
G03*
X204000Y414094I-24J-5906D01*
G01*
X171500D02*
G03*
X171500Y425906I24J5906D01*
G01*
X171500D02*
G03*
X171500Y414094I-24J-5906D01*
G01*
X139000D02*
G03*
X139000Y425906I24J5906D01*
G01*
X139000D02*
G03*
X139000Y414094I-24J-5906D01*
G01*
X101000Y425906D02*
G03*
X101000Y414094I-24J-5906D01*
G01*
X101000D02*
G03*
X101000Y425906I24J5906D01*
G01*
X225685Y333500D02*
G03*
X186315Y333500I-19685J0D01*
G01*
D02*
G03*
X225685Y333500I19685J0D01*
G01*
X64902Y348500D02*
G03*
X40098Y348500I-12402J0D01*
G01*
D02*
G03*
X64902Y348500I12402J0D01*
G01*
X172350Y264925D02*
Y268075D01*
X178650D01*
Y264925D02*
Y268075D01*
X172350Y264925D02*
X178650D01*
X172850Y188425D02*
Y191575D01*
X179150D01*
Y188425D02*
Y191575D01*
X172850Y188425D02*
X179150D01*
X10063Y166941D02*
Y172059D01*
X17937D01*
Y166941D02*
Y172059D01*
X10063Y166941D02*
X17937D01*
X32437Y175941D02*
Y181059D01*
X24563Y175941D02*
X32437D01*
X24563D02*
Y181059D01*
X32437D01*
X90211Y43878D02*
X137455D01*
Y91122D01*
X90211D02*
X137455D01*
X90211Y43878D02*
Y91122D01*
X144685Y440838D02*
X155315D01*
X144685D02*
Y458161D01*
X155315D01*
Y440838D02*
Y458161D01*
X101000Y494079D02*
X111000D01*
Y503921D01*
X101000D02*
X111000D01*
X101000Y494079D02*
Y503921D01*
X25000Y416079D02*
Y425921D01*
X35000D01*
Y416079D02*
Y425921D01*
X25000Y416079D02*
X35000D01*
X36768Y378000D02*
Y403000D01*
X70232D01*
Y378000D02*
Y403000D01*
X36768Y378000D02*
X70232D01*
X168316Y150575D02*
X174616D01*
X168316Y147425D02*
Y150575D01*
Y147425D02*
X174616D01*
Y150575D01*
X152884D02*
X159184D01*
X152884Y147425D02*
Y150575D01*
Y147425D02*
X159184D01*
Y150575D01*
X122850D02*
X129150D01*
X122850Y147425D02*
Y150575D01*
Y147425D02*
X129150D01*
Y150575D01*
X170350Y228575D02*
X176650D01*
X170350Y225425D02*
Y228575D01*
Y225425D02*
X176650D01*
Y228575D01*
X152884D02*
X159184D01*
X152884Y225425D02*
Y228575D01*
Y225425D02*
X159184D01*
Y228575D01*
X122850D02*
X129150D01*
X122850Y225425D02*
Y228575D01*
Y225425D02*
X129150D01*
Y228575D01*
X196075Y252850D02*
Y259150D01*
X192925D02*
X196075D01*
X192925Y252850D02*
Y259150D01*
Y252850D02*
X196075D01*
X198850Y268425D02*
X205150D01*
Y271575D01*
X198850D02*
X205150D01*
X198850Y268425D02*
Y271575D01*
X190185Y363338D02*
X200815D01*
X190185D02*
Y380661D01*
X200815D01*
Y363338D02*
Y380661D01*
X50484Y273276D02*
Y298866D01*
X68515D01*
Y273276D02*
Y298866D01*
X50484Y273276D02*
X68515D01*
X17508Y283328D02*
X43492D01*
Y259313D02*
Y283328D01*
X17508Y259313D02*
X43492D01*
X17508D02*
Y283328D01*
X71658Y332626D02*
Y348374D01*
X91343D01*
Y332626D02*
Y348374D01*
X71658Y332626D02*
X91343D01*
X77126Y367674D02*
Y389327D01*
Y367674D02*
X92874D01*
Y389327D01*
X77126D02*
X92874D01*
X98685Y358662D02*
X109315D01*
Y341339D02*
Y358662D01*
X98685Y341339D02*
X109315D01*
X98685D02*
Y358662D01*
X207720Y238221D02*
X235279D01*
X207720D02*
Y265779D01*
X235279D01*
Y238221D02*
Y265779D01*
X182095Y307453D02*
X195875D01*
X182095Y301547D02*
Y307453D01*
Y301547D02*
X195875D01*
Y307453D01*
X49181Y206402D02*
X246819D01*
Y131598D02*
Y206402D01*
X49181Y131598D02*
X246819D01*
X49181D02*
Y206402D01*
Y284902D02*
X246819D01*
Y210099D02*
Y284902D01*
X49181Y210099D02*
X246819D01*
X49181D02*
Y284902D01*
X208878Y43878D02*
Y91122D01*
X256122D01*
Y43878D02*
Y91122D01*
X208878Y43878D02*
X256122D01*
X149545D02*
Y91122D01*
X196789D01*
Y43878D02*
Y91122D01*
X149545Y43878D02*
X196789D01*
X30878D02*
Y91122D01*
X78122D01*
Y43878D02*
Y91122D01*
X30878Y43878D02*
X78122D01*
X67500Y496079D02*
Y505921D01*
X77500D01*
Y496079D02*
Y505921D01*
X67500Y496079D02*
X77500D01*
X122763Y552543D02*
X193629D01*
X122763Y500969D02*
Y552543D01*
Y500969D02*
X193629D01*
Y552543D01*
M02*
