G04*
G04 #@! TF.GenerationSoftware,Altium Limited,Altium Designer,20.2.6 (244)*
G04*
G04 Layer_Color=32896*
%FSLAX25Y25*%
%MOIN*%
G70*
G04*
G04 #@! TF.SameCoordinates,9385ED74-4294-42B6-9646-82B243174D78*
G04*
G04*
G04 #@! TF.FilePolarity,Positive*
G04*
G01*
G75*
%ADD10C,0.01000*%
%ADD18C,0.00591*%
%ADD74C,0.03937*%
D10*
X131942Y67500D02*
G03*
X131942Y67500I-18109J0D01*
G01*
X135493Y85407D02*
G03*
X135493Y85407I-3151J0D01*
G01*
X135492Y49969D02*
G03*
X135492Y49969I-3151J0D01*
G01*
X98092Y85414D02*
G03*
X98092Y85414I-3151J0D01*
G01*
X98090Y49976D02*
G03*
X98090Y49976I-3151J0D01*
G01*
X130565Y67500D02*
G03*
X130565Y67500I-16732J0D01*
G01*
X200000Y425000D02*
G03*
X200000Y415000I4000J-5000D01*
G01*
X208228Y415243D02*
G03*
X208500Y424500I-4228J4756D01*
G01*
X167500Y425000D02*
G03*
X167500Y415000I4000J-5000D01*
G01*
X175728Y415243D02*
G03*
X176000Y424500I-4228J4756D01*
G01*
X135000Y425000D02*
G03*
X135000Y415000I4000J-5000D01*
G01*
X143228Y415243D02*
G03*
X143500Y424500I-4228J4756D01*
G01*
X105000Y415000D02*
G03*
X105000Y425000I-4000J5000D01*
G01*
X96772Y424756D02*
G03*
X96500Y415500I4228J-4756D01*
G01*
X249232Y67500D02*
G03*
X249232Y67500I-16732J0D01*
G01*
X216757Y49976D02*
G03*
X216757Y49976I-3151J0D01*
G01*
X216759Y85414D02*
G03*
X216759Y85414I-3151J0D01*
G01*
X254159Y49969D02*
G03*
X254159Y49969I-3151J0D01*
G01*
X254160Y85407D02*
G03*
X254160Y85407I-3151J0D01*
G01*
X250609Y67500D02*
G03*
X250609Y67500I-18109J0D01*
G01*
X189899D02*
G03*
X189899Y67500I-16732J0D01*
G01*
X157424Y49976D02*
G03*
X157424Y49976I-3151J0D01*
G01*
X157426Y85414D02*
G03*
X157426Y85414I-3151J0D01*
G01*
X194826Y49969D02*
G03*
X194826Y49969I-3151J0D01*
G01*
X194827Y85407D02*
G03*
X194827Y85407I-3151J0D01*
G01*
X191276Y67500D02*
G03*
X191276Y67500I-18109J0D01*
G01*
X71232D02*
G03*
X71232Y67500I-16732J0D01*
G01*
X38757Y49976D02*
G03*
X38757Y49976I-3151J0D01*
G01*
X38759Y85414D02*
G03*
X38759Y85414I-3151J0D01*
G01*
X76159Y49969D02*
G03*
X76159Y49969I-3151J0D01*
G01*
X76160Y85407D02*
G03*
X76160Y85407I-3151J0D01*
G01*
X72609Y67500D02*
G03*
X72609Y67500I-18109J0D01*
G01*
X137455Y43878D02*
Y91122D01*
X90211D02*
X137455D01*
X90211Y43878D02*
Y91122D01*
Y43878D02*
X137455D01*
X206500Y421500D02*
X208500D01*
X207500Y420500D02*
Y422500D01*
X174000Y421500D02*
X176000D01*
X175000Y420500D02*
Y422500D01*
X141500Y421500D02*
X143500D01*
X142500Y420500D02*
Y422500D01*
X96500Y418500D02*
X98500D01*
X97500Y417500D02*
Y419500D01*
X48787Y131598D02*
Y206402D01*
X247213Y131598D02*
Y206402D01*
X48787D02*
X247213D01*
X48787Y131598D02*
X247213D01*
X48787Y210098D02*
Y284902D01*
X247213Y210098D02*
Y284902D01*
X48787D02*
X247213D01*
X48787Y210098D02*
X247213D01*
X208878Y43878D02*
X256122D01*
X208878D02*
Y91122D01*
X256122D01*
Y43878D02*
Y91122D01*
X149545Y43878D02*
X196789D01*
X149545D02*
Y91122D01*
X196789D01*
Y43878D02*
Y91122D01*
X30878Y43878D02*
X78122D01*
X30878D02*
Y91122D01*
X78122D01*
Y43878D02*
Y91122D01*
D18*
X28796Y49378D02*
Y46622D01*
Y47541D01*
X26959Y49378D01*
X28337Y48000D01*
X26959Y46622D01*
X24663D02*
Y49378D01*
X26041Y48000D01*
X24204D01*
X196296Y416377D02*
Y413623D01*
X194918D01*
X194459Y414082D01*
Y415918D01*
X194918Y416377D01*
X196296D01*
X193541D02*
X191704D01*
Y415918D01*
X193541Y414082D01*
Y413623D01*
X159204Y413123D02*
Y415877D01*
X160582D01*
X161041Y415418D01*
Y413582D01*
X160582Y413123D01*
X159204D01*
X163796D02*
X162878Y413582D01*
X161959Y414500D01*
Y415418D01*
X162418Y415877D01*
X163337D01*
X163796Y415418D01*
Y414959D01*
X163337Y414500D01*
X161959D01*
X126704Y413123D02*
Y415877D01*
X128082D01*
X128541Y415418D01*
Y413582D01*
X128082Y413123D01*
X126704D01*
X131296D02*
X129459D01*
Y414500D01*
X130377Y414041D01*
X130837D01*
X131296Y414500D01*
Y415418D01*
X130837Y415877D01*
X129918D01*
X129459Y415418D01*
X98704Y406122D02*
Y408878D01*
X100082D01*
X100541Y408418D01*
Y406582D01*
X100082Y406122D01*
X98704D01*
X101459Y406582D02*
X101918Y406122D01*
X102837D01*
X103296Y406582D01*
Y407041D01*
X102837Y407500D01*
X102377D01*
X102837D01*
X103296Y407959D01*
Y408418D01*
X102837Y408878D01*
X101918D01*
X101459Y408418D01*
X247100Y212251D02*
Y209496D01*
X245263D01*
X242508Y212251D02*
X244345D01*
Y209496D01*
X242508D01*
X244345Y210874D02*
X243427D01*
X241590Y212251D02*
Y209496D01*
X240212D01*
X239753Y209955D01*
Y211792D01*
X240212Y212251D01*
X241590D01*
X236998Y209496D02*
X238835D01*
X236998Y211333D01*
Y211792D01*
X237457Y212251D01*
X238376D01*
X238835Y211792D01*
X247100Y290751D02*
Y287996D01*
X245263D01*
X242508Y290751D02*
X244345D01*
Y287996D01*
X242508D01*
X244345Y289374D02*
X243427D01*
X241590Y290751D02*
Y287996D01*
X240212D01*
X239753Y288455D01*
Y290292D01*
X240212Y290751D01*
X241590D01*
X238835Y287996D02*
X237917D01*
X238376D01*
Y290751D01*
X238835Y290292D01*
X256000Y108651D02*
Y105896D01*
Y106814D01*
X254163Y108651D01*
X255541Y107274D01*
X254163Y105896D01*
X251408D02*
X253245D01*
X251408Y107733D01*
Y108192D01*
X251868Y108651D01*
X252786D01*
X253245Y108192D01*
X144163Y45623D02*
Y48377D01*
Y47459D01*
X146000Y45623D01*
X144623Y47000D01*
X146000Y48377D01*
X146918D02*
X147837D01*
X147378D01*
Y45623D01*
X146918Y46082D01*
X81704Y47622D02*
Y50378D01*
Y49459D01*
X83541Y47622D01*
X82163Y49000D01*
X83541Y50378D01*
X84459Y48082D02*
X84918Y47622D01*
X85837D01*
X86296Y48082D01*
Y48541D01*
X85837Y49000D01*
X85378D01*
X85837D01*
X86296Y49459D01*
Y49918D01*
X85837Y50378D01*
X84918D01*
X84459Y49918D01*
D74*
X94160Y188830D02*
G03*
X94145Y191161I-15J1165D01*
G01*
D02*
G03*
X94130Y188830I0J-1165D01*
G01*
X236960Y188430D02*
G03*
X236945Y190761I-15J1165D01*
G01*
D02*
G03*
X236930Y188430I0J-1165D01*
G01*
X190960Y188830D02*
G03*
X190945Y191161I-15J1165D01*
G01*
D02*
G03*
X190930Y188830I0J-1165D01*
G01*
X139660Y188730D02*
G03*
X139645Y191060I-15J1165D01*
G01*
D02*
G03*
X139630Y188730I0J-1165D01*
G01*
X94160Y267330D02*
G03*
X94145Y269660I-15J1165D01*
G01*
D02*
G03*
X94130Y267330I0J-1165D01*
G01*
X236960Y266930D02*
G03*
X236945Y269261I-15J1165D01*
G01*
D02*
G03*
X236930Y266930I0J-1165D01*
G01*
X190960Y267330D02*
G03*
X190945Y269660I-15J1165D01*
G01*
D02*
G03*
X190930Y267330I0J-1165D01*
G01*
X139660Y267230D02*
G03*
X139645Y269561I-15J1165D01*
G01*
D02*
G03*
X139630Y267230I0J-1165D01*
G01*
X63700Y185900D02*
X65900Y173600D01*
X84800Y186600D02*
X87000Y174300D01*
X66500Y190200D02*
X80900D01*
X69700Y169700D02*
X84100D01*
X88000Y166100D02*
X90200Y153800D01*
X72700Y149200D02*
X87100D01*
X66900Y165400D02*
X69100Y153100D01*
X162700Y166000D02*
X164900Y153700D01*
X168500Y149800D02*
X182900D01*
X183800Y166700D02*
X186000Y154400D01*
X165500Y170300D02*
X179900D01*
X162300Y190800D02*
X176700D01*
X180600Y187200D02*
X182800Y174900D01*
X159500Y186500D02*
X161700Y174200D01*
X210000Y165600D02*
X212200Y153300D01*
X215800Y149400D02*
X230200D01*
X231100Y166300D02*
X233300Y154000D01*
X212800Y169900D02*
X227200D01*
X209600Y190400D02*
X224000D01*
X227900Y186800D02*
X230100Y174500D01*
X206800Y186100D02*
X209000Y173800D01*
X108900Y186500D02*
X111100Y174200D01*
X130000Y187200D02*
X132200Y174900D01*
X111700Y190800D02*
X126100D01*
X114900Y170300D02*
X129300D01*
X133200Y166700D02*
X135400Y154400D01*
X117900Y149800D02*
X132300D01*
X112100Y166000D02*
X114300Y153700D01*
X63700Y264400D02*
X65900Y252100D01*
X84800Y265100D02*
X87000Y252800D01*
X66500Y268700D02*
X80900D01*
X69700Y248200D02*
X84100D01*
X88000Y244600D02*
X90200Y232300D01*
X72700Y227700D02*
X87100D01*
X66900Y243900D02*
X69100Y231600D01*
X162700Y244500D02*
X164900Y232200D01*
X168500Y228300D02*
X182900D01*
X183800Y245200D02*
X186000Y232900D01*
X165500Y248800D02*
X179900D01*
X162300Y269300D02*
X176700D01*
X180600Y265700D02*
X182800Y253400D01*
X159500Y265000D02*
X161700Y252700D01*
X210000Y244100D02*
X212200Y231800D01*
X215800Y227900D02*
X230200D01*
X231100Y244800D02*
X233300Y232500D01*
X212800Y248400D02*
X227200D01*
X209600Y268900D02*
X224000D01*
X227900Y265300D02*
X230100Y253000D01*
X206800Y264600D02*
X209000Y252300D01*
X108900Y265000D02*
X111100Y252700D01*
X130000Y265700D02*
X132200Y253400D01*
X111700Y269300D02*
X126100D01*
X114900Y248800D02*
X129300D01*
X133200Y245200D02*
X135400Y232900D01*
X117900Y228300D02*
X132300D01*
X112100Y244500D02*
X114300Y232200D01*
M02*
