G04*
G04 #@! TF.GenerationSoftware,Altium Limited,Altium Designer,20.2.6 (244)*
G04*
G04 Layer_Color=16711935*
%FSLAX25Y25*%
%MOIN*%
G70*
G04*
G04 #@! TF.SameCoordinates,9385ED74-4294-42B6-9646-82B243174D78*
G04*
G04*
G04 #@! TF.FilePolarity,Positive*
G04*
G01*
G75*
%ADD10C,0.01000*%
%ADD95C,0.00500*%
D10*
X50773Y368713D02*
G03*
X56284Y368776I2756J0D01*
G01*
X56319Y411811D02*
G03*
X50808Y411748I-2756J0D01*
G01*
X27374Y129949D02*
G03*
X27374Y129949I-7874J0D01*
G01*
Y393500D02*
G03*
X27374Y393500I-7874J0D01*
G01*
X275572Y129949D02*
G03*
X275572Y129949I-7874J0D01*
G01*
Y393500D02*
G03*
X275572Y393500I-7874J0D01*
G01*
X56312Y368771D02*
Y411918D01*
X50786Y368771D02*
Y411796D01*
D95*
X39368Y483487D02*
G03*
X39870Y483989I0J501D01*
G01*
X246987Y484132D02*
G03*
X247488Y483630I501J0D01*
G01*
X286859D02*
G03*
X286900Y483632I0J501D01*
G01*
X247632Y40013D02*
G03*
X247130Y39511I0J-501D01*
G01*
X39872Y39370D02*
G03*
X39370Y39872I-501J0D01*
G01*
X501D02*
X501Y483487D01*
X39368Y483487D01*
X39870Y483989D02*
Y523120D01*
X246987D01*
X246987Y484132D02*
X246987Y523120D01*
X247488Y483630D02*
X286859D01*
X286900Y40013D02*
Y483632D01*
X247632Y40013D02*
X286900D01*
X247130Y501D02*
Y39511D01*
X39872Y501D02*
X247130Y501D01*
X39872Y501D02*
X39872Y39370D01*
X501Y39872D02*
X39370D01*
M02*
