G04*
G04 #@! TF.GenerationSoftware,Altium Limited,Altium Designer,20.2.6 (244)*
G04*
G04 Layer_Color=128*
%FSLAX25Y25*%
%MOIN*%
G70*
G04*
G04 #@! TF.SameCoordinates,9385ED74-4294-42B6-9646-82B243174D78*
G04*
G04*
G04 #@! TF.FilePolarity,Positive*
G04*
G01*
G75*
%ADD94C,0.00200*%
D94*
X35032Y205000D02*
X38969D01*
X37000Y203031D02*
Y206968D01*
X15032Y205000D02*
X18969D01*
X17000Y203031D02*
Y206968D01*
X202228Y415000D02*
X205772D01*
X204000Y413228D02*
Y416772D01*
X202228Y425000D02*
X205772D01*
X204000Y423228D02*
Y426772D01*
X169728Y415000D02*
X173272D01*
X171500Y413228D02*
Y416772D01*
X169728Y425000D02*
X173272D01*
X171500Y423228D02*
Y426772D01*
X137228Y415000D02*
X140772D01*
X139000Y413228D02*
Y416772D01*
X137228Y425000D02*
X140772D01*
X139000Y423228D02*
Y426772D01*
X99228Y425000D02*
X102772D01*
X101000Y423228D02*
Y426772D01*
X99228Y415000D02*
X102772D01*
X101000Y413228D02*
Y416772D01*
X103835Y499000D02*
X108165D01*
X106000Y496835D02*
Y501165D01*
X27835Y421000D02*
X32165D01*
X30000Y418835D02*
Y423165D01*
X81221Y452500D02*
X87520D01*
X84370Y449350D02*
Y455650D01*
X41850Y452500D02*
X48150D01*
X45000Y449350D02*
Y455650D01*
X18228Y452500D02*
X24528D01*
X21378Y449350D02*
Y455650D01*
X104843Y452500D02*
X111142D01*
X107992Y449350D02*
Y455650D01*
X167526Y339854D02*
X173038D01*
X170282Y337098D02*
Y342610D01*
X167526Y357200D02*
X173038D01*
X170282Y354445D02*
Y359956D01*
X167526Y374500D02*
X173038D01*
X170282Y371744D02*
Y377256D01*
X167526Y322532D02*
X173038D01*
X170282Y319776D02*
Y325288D01*
X119494Y322531D02*
X125006D01*
X122250Y319775D02*
Y325287D01*
X119494Y339854D02*
X125006D01*
X122250Y337098D02*
Y342610D01*
X119494Y374500D02*
X125006D01*
X122250Y371744D02*
Y377256D01*
X270031Y357000D02*
X273969D01*
X272000Y355031D02*
Y358968D01*
X240110Y357000D02*
X244047D01*
X242079Y355031D02*
Y358968D01*
X105228Y234500D02*
X108772D01*
X107000Y232728D02*
Y236272D01*
X105228Y244500D02*
X108772D01*
X107000Y242728D02*
Y246272D01*
X105228Y254500D02*
X108772D01*
X107000Y252728D02*
Y256272D01*
X105228Y264500D02*
X108772D01*
X107000Y262728D02*
Y266272D01*
X194032Y333500D02*
X197968D01*
X196000Y331532D02*
Y335469D01*
X214032Y333500D02*
X217969D01*
X216000Y331532D02*
Y335469D01*
X83031Y388342D02*
X86968D01*
X85000Y386373D02*
Y390311D01*
X45531Y348500D02*
X49468D01*
X47500Y346532D02*
Y350468D01*
X55532Y348500D02*
X59469D01*
X57500Y346532D02*
Y350468D01*
X83031Y368657D02*
X86968D01*
X85000Y366688D02*
Y370625D01*
X141228Y139000D02*
X144772D01*
X143000Y137228D02*
Y140772D01*
X131228Y139000D02*
X134772D01*
X133000Y137228D02*
Y140772D01*
X151228Y139000D02*
X154772D01*
X153000Y137228D02*
Y140772D01*
X161228Y139000D02*
X164772D01*
X163000Y137228D02*
Y140772D01*
X171228Y139000D02*
X174772D01*
X173000Y137228D02*
Y140772D01*
X121228Y139000D02*
X124772D01*
X123000Y137228D02*
Y140772D01*
X171228Y199000D02*
X174772D01*
X173000Y197228D02*
Y200772D01*
X121228Y199000D02*
X124772D01*
X123000Y197228D02*
Y200772D01*
X161228Y199000D02*
X164772D01*
X163000Y197228D02*
Y200772D01*
X131228Y199000D02*
X134772D01*
X133000Y197228D02*
Y200772D01*
X141228Y199000D02*
X144772D01*
X143000Y197228D02*
Y200772D01*
X151228Y199000D02*
X154772D01*
X153000Y197228D02*
Y200772D01*
X141228Y217500D02*
X144772D01*
X143000Y215728D02*
Y219272D01*
X131228Y217500D02*
X134772D01*
X133000Y215728D02*
Y219272D01*
X151228Y217500D02*
X154772D01*
X153000Y215728D02*
Y219272D01*
X161228Y217500D02*
X164772D01*
X163000Y215728D02*
Y219272D01*
X171228Y217500D02*
X174772D01*
X173000Y215728D02*
Y219272D01*
X121228Y217500D02*
X124772D01*
X123000Y215728D02*
Y219272D01*
X171228Y277500D02*
X174772D01*
X173000Y275728D02*
Y279272D01*
X121228Y277500D02*
X124772D01*
X123000Y275728D02*
Y279272D01*
X161228Y277500D02*
X164772D01*
X163000Y275728D02*
Y279272D01*
X131228Y277500D02*
X134772D01*
X133000Y275728D02*
Y279272D01*
X141228Y277500D02*
X144772D01*
X143000Y275728D02*
Y279272D01*
X151228Y277500D02*
X154772D01*
X153000Y275728D02*
Y279272D01*
X70335Y501000D02*
X74665D01*
X72500Y498835D02*
Y503165D01*
X162920Y499001D02*
X170007D01*
X166463Y495457D02*
Y502544D01*
X179457Y499000D02*
X186543D01*
X183000Y495457D02*
Y502543D01*
X162921Y477348D02*
X170007D01*
X166464Y473805D02*
Y480891D01*
X179455Y477348D02*
X186542D01*
X182999Y473804D02*
Y480891D01*
X146384Y499001D02*
X153471D01*
X149927Y495457D02*
Y502544D01*
X146384Y477348D02*
X153471D01*
X149927Y473805D02*
Y480891D01*
X129850Y499001D02*
X136936D01*
X133393Y495457D02*
Y502544D01*
X129850Y477348D02*
X136936D01*
X133393Y473805D02*
Y480891D01*
X33600Y285000D02*
X36400D01*
X35000Y283600D02*
Y286400D01*
X33600Y278500D02*
X36400D01*
X35000Y277100D02*
Y279900D01*
X33600Y272000D02*
X36400D01*
X35000Y270600D02*
Y273400D01*
X24100Y278500D02*
X26900D01*
X25500Y277100D02*
Y279900D01*
X273100Y290500D02*
X275900D01*
X274500Y289100D02*
Y291900D01*
X82600Y97000D02*
X85400D01*
X84000Y95600D02*
Y98400D01*
X227600Y286000D02*
X230400D01*
X229000Y284600D02*
Y287400D01*
X221053Y291453D02*
X223853D01*
X222453Y290053D02*
Y292853D01*
X131125Y97025D02*
X133925D01*
X132525Y95625D02*
Y98425D01*
X192075Y97025D02*
X194875D01*
X193475Y95625D02*
Y98425D01*
X249600Y97000D02*
X252400D01*
X251000Y95600D02*
Y98400D01*
X31212Y97788D02*
X34012D01*
X32612Y96388D02*
Y99188D01*
X212625Y97025D02*
X215425D01*
X214025Y95625D02*
Y98425D01*
X151625Y97025D02*
X154425D01*
X153025Y95625D02*
Y98425D01*
X94125Y97025D02*
X96925D01*
X95525Y95625D02*
Y98425D01*
X12100Y253500D02*
X14900D01*
X13500Y252100D02*
Y254900D01*
X24100Y272000D02*
X26900D01*
X25500Y270600D02*
Y273400D01*
X24100Y285000D02*
X26900D01*
X25500Y283600D02*
Y286400D01*
X31600Y109000D02*
X34400D01*
X33000Y107600D02*
Y110400D01*
X31100Y157500D02*
X33900D01*
X32500Y156100D02*
Y158900D01*
X31083Y171905D02*
X33883D01*
X32483Y170505D02*
Y173305D01*
X193600Y438500D02*
X196400D01*
X195000Y437100D02*
Y439900D01*
X174600Y438500D02*
X177400D01*
X176000Y437100D02*
Y439900D01*
X12100Y247500D02*
X14900D01*
X13500Y246100D02*
Y248900D01*
X196100Y294500D02*
X198900D01*
X197500Y293100D02*
Y295900D01*
X180100Y294500D02*
X182900D01*
X181500Y293100D02*
Y295900D01*
X188100Y294500D02*
X190900D01*
X189500Y293100D02*
Y295900D01*
X22100Y327650D02*
X24900D01*
X23500Y326250D02*
Y329050D01*
X22100Y333150D02*
X24900D01*
X23500Y331750D02*
Y334550D01*
X102600Y330000D02*
X105400D01*
X104000Y328600D02*
Y331400D01*
X95600Y330000D02*
X98400D01*
X97000Y328600D02*
Y331400D01*
M02*
