M48
;Layer_Color=9474304
;FILE_FORMAT=2:5
INCH,LZ
;TYPE=PLATED
T1F00S00C0.02800
T2F00S00C0.03543
T3F00S00C0.03937
T4F00S00C0.04331
T5F00S00C0.05512
T6F00S00C0.06299
T7F00S00C0.07087
%
T01
X0214025Y0097025
X0251Y0097
X0193475Y0097025
X0153025
X0132525
X0095525
X0084Y0097
X0032612Y0097788
X0033Y0109
X00325Y01575
X0032483Y0171905
X00135Y02475
Y02535
X00255Y0272
Y02785
Y0285
X0035
Y02785
Y0272
X00235Y032765
Y033315
X0097Y033
X0104
X01815Y02945
X01895
X01975
X0222453Y0291453
X0229Y0286
X02745Y02905
X0195Y04385
X0176
T02
X0123Y0139
X0133
X0143
X0153
X0163
X0173
Y0199
X0163
X0153
X0143
X0133
X0123
Y02175
X0133
X0143
X0153
X0163
X0173
Y02775
X0163
X0153
X0143
X0133
X0123
X0107Y02645
Y02545
Y02445
Y02345
X0204Y0415
Y0425
X01715
Y0415
X0139
Y0425
X0101
Y0415
T03
X0017Y0205
X0037
X00475Y03485
X00575
X0196Y03335
X0216
X0242079Y0357
X0272
X0085Y0368657
Y0388342
T04
X00725Y0501
X0106Y0499
X003Y0421
T05
X012225Y0322531
Y0339854
X0170282Y0339854
X0170282Y0322532
X0170282Y03572
Y03745
X012225
T06
X0045Y04525
X008437
X0107992
X0021378
T07
X0133393Y0477348
X0149927
X0166464
X0182999Y0477348
X0183Y0499
X0166463Y0499001
X0149927
X0133393
M30
